<?xml version="1.0" encoding="UTF-8"?>
<!DOCTYPE svg PUBLIC "-//W3C//DTD SVG 1.1//EN" "http://www.w3.org/Graphics/SVG/1.1/DTD/svg11.dtd">
<svg xmlns="http://www.w3.org/2000/svg" version="1.1" width="512px" height="512px" style="shape-rendering:geometricPrecision; text-rendering:geometricPrecision; image-rendering:optimizeQuality; fill-rule:evenodd; clip-rule:evenodd" xmlns:xlink="http://www.w3.org/1999/xlink">
<g><path style="opacity:1" fill="#fefefe" d="M -0.5,-0.5 C 170.167,-0.5 340.833,-0.5 511.5,-0.5C 511.5,170.167 511.5,340.833 511.5,511.5C 340.833,511.5 170.167,511.5 -0.5,511.5C -0.5,340.833 -0.5,170.167 -0.5,-0.5 Z"/></g>
<g><path style="opacity:1" fill="#ffe2b4" d="M 273.5,62.5 C 268.346,62.2941 263.346,62.9608 258.5,64.5C 263.224,61.5285 268.224,60.8618 273.5,62.5 Z"/></g>
<g><path style="opacity:1" fill="#ffc262" d="M 273.5,62.5 C 279.449,63.6079 284.616,66.2746 289,70.5C 292.104,76.251 294.604,82.251 296.5,88.5C 293.061,88.7878 289.728,89.4544 286.5,90.5C 285.158,76.3153 277.492,70.1486 263.5,72C 252.921,77.4016 250.088,85.5683 255,96.5C 255.71,97.9733 256.876,98.6399 258.5,98.5C 256.167,99.1667 253.833,99.8333 251.5,100.5C 249.883,101.038 248.216,101.371 246.5,101.5C 244.3,94.9996 243.466,88.3329 244,81.5C 246.19,73.4835 251.024,67.8168 258.5,64.5C 263.346,62.9608 268.346,62.2941 273.5,62.5 Z"/></g>
<g><path style="opacity:1" fill="#fffbf8" d="M 286.5,90.5 C 283.557,90.9802 280.89,91.9802 278.5,93.5C 273.114,93.8364 268.114,95.1697 263.5,97.5C 261.784,97.6287 260.117,97.962 258.5,98.5C 256.876,98.6399 255.71,97.9733 255,96.5C 250.088,85.5683 252.921,77.4016 263.5,72C 277.492,70.1486 285.158,76.3153 286.5,90.5 Z"/></g>
<g><path style="opacity:1" fill="#ff9140" d="M 296.5,88.5 C 298.39,88.2965 299.89,88.9632 301,90.5C 301.977,92.74 302.477,95.0733 302.5,97.5C 301.292,98.2341 299.959,98.5674 298.5,98.5C 298.5,97.5 298.5,96.5 298.5,95.5C 296.019,95.3234 294.186,96.3234 293,98.5C 290.315,98.1727 287.482,98.1727 284.5,98.5C 284.5,97.5 284.5,96.5 284.5,95.5C 285.552,95.6495 286.552,95.4828 287.5,95C 284.379,91.9544 282.379,92.2877 281.5,96C 280.552,96.4828 279.552,96.6495 278.5,96.5C 278.5,95.5 278.5,94.5 278.5,93.5C 280.89,91.9802 283.557,90.9802 286.5,90.5C 289.728,89.4544 293.061,88.7878 296.5,88.5 Z"/></g>
<g><path style="opacity:1" fill="#ff6f35" d="M 306.5,111.5 C 306.5,113.833 306.5,116.167 306.5,118.5C 305.21,121.642 304.21,124.975 303.5,128.5C 302.503,131.155 300.836,133.155 298.5,134.5C 297.504,134.414 296.671,134.748 296,135.5C 294.983,132.972 293.816,132.972 292.5,135.5C 290.476,133.642 288.309,131.975 286,130.5C 285.667,131.5 285.333,132.5 285,133.5C 284.261,132.426 283.261,131.759 282,131.5C 275.539,133.911 269.373,133.244 263.5,129.5C 262.571,128.311 262.238,126.978 262.5,125.5C 260.801,125.473 259.467,124.806 258.5,123.5C 258.5,122.833 258.5,122.167 258.5,121.5C 258.918,120.778 259.584,120.278 260.5,120C 258.652,118.507 257.819,116.674 258,114.5C 258.556,116.595 259.056,116.762 259.5,115C 258.379,110.81 256.379,107.144 253.5,104C 254.84,101.851 254.173,100.684 251.5,100.5C 253.833,99.8333 256.167,99.1667 258.5,98.5C 260.117,97.962 261.784,97.6287 263.5,97.5C 265.861,97.3259 268.194,96.9926 270.5,96.5C 270.52,98.143 269.853,99.4763 268.5,100.5C 270.045,101.452 271.712,101.785 273.5,101.5C 273.5,100.5 273.5,99.5 273.5,98.5C 274.833,98.5 276.167,98.5 277.5,98.5C 277.116,100.665 277.783,102.332 279.5,103.5C 282.937,103.325 286.437,103.325 290,103.5C 290.689,102.643 291.522,101.977 292.5,101.5C 294.414,102.594 296.248,103.594 298,104.5C 298.873,104.265 299.707,103.931 300.5,103.5C 299.977,105.718 300.81,107.718 303,109.5C 303.333,108.5 303.667,107.5 304,106.5C 304.374,108.491 305.207,110.158 306.5,111.5 Z"/></g>
<g><path style="opacity:1" fill="#ff7939" d="M 302.5,97.5 C 303.833,102.167 305.167,106.833 306.5,111.5C 305.207,110.158 304.374,108.491 304,106.5C 303.667,107.5 303.333,108.5 303,109.5C 300.81,107.718 299.977,105.718 300.5,103.5C 299.707,103.931 298.873,104.265 298,104.5C 296.248,103.594 294.414,102.594 292.5,101.5C 291.522,101.977 290.689,102.643 290,103.5C 286.437,103.325 282.937,103.325 279.5,103.5C 277.783,102.332 277.116,100.665 277.5,98.5C 276.167,98.5 274.833,98.5 273.5,98.5C 273.5,99.5 273.5,100.5 273.5,101.5C 271.712,101.785 270.045,101.452 268.5,100.5C 269.853,99.4763 270.52,98.143 270.5,96.5C 268.194,96.9926 265.861,97.3259 263.5,97.5C 268.114,95.1697 273.114,93.8364 278.5,93.5C 278.5,94.5 278.5,95.5 278.5,96.5C 279.552,96.6495 280.552,96.4828 281.5,96C 282.379,92.2877 284.379,91.9544 287.5,95C 286.552,95.4828 285.552,95.6495 284.5,95.5C 284.5,96.5 284.5,97.5 284.5,98.5C 287.482,98.1727 290.315,98.1727 293,98.5C 294.186,96.3234 296.019,95.3234 298.5,95.5C 298.5,96.5 298.5,97.5 298.5,98.5C 299.959,98.5674 301.292,98.2341 302.5,97.5 Z"/></g>
<g><path style="opacity:1" fill="#ff5c26" d="M 251.5,100.5 C 254.173,100.684 254.84,101.851 253.5,104C 256.379,107.144 258.379,110.81 259.5,115C 259.056,116.762 258.556,116.595 258,114.5C 257.819,116.674 258.652,118.507 260.5,120C 259.584,120.278 258.918,120.778 258.5,121.5C 256.484,122.486 255.151,124.153 254.5,126.5C 253.355,125.224 253.355,123.891 254.5,122.5C 250.81,120.949 250.81,119.116 254.5,117C 253.083,114.017 252.25,110.85 252,107.5C 250.745,108.211 249.579,109.044 248.5,110C 248.833,110.333 249.167,110.667 249.5,111C 248.552,111.483 247.552,111.649 246.5,111.5C 246.5,112.5 246.5,113.5 246.5,114.5C 244.022,110.16 244.022,105.827 246.5,101.5C 248.216,101.371 249.883,101.038 251.5,100.5 Z"/></g>
<g><path style="opacity:1" fill="#fff0ea" d="M 274.5,107.5 C 276.582,107.472 278.416,108.139 280,109.5C 280.248,115.067 281.415,120.4 283.5,125.5C 280.794,125.575 278.127,125.908 275.5,126.5C 275.665,123.482 275.498,120.482 275,117.5C 270.535,114.329 270.368,110.996 274.5,107.5 Z"/></g>
<g><path style="opacity:1" fill="#ffa47f" d="M 306.5,118.5 C 306.712,122.345 305.712,125.679 303.5,128.5C 304.21,124.975 305.21,121.642 306.5,118.5 Z"/></g>
<g><path style="opacity:1" fill="#ff4a18" d="M 258.5,121.5 C 258.5,122.167 258.5,122.833 258.5,123.5C 257.903,123.735 257.57,124.235 257.5,125C 258.601,127.216 259.934,129.216 261.5,131C 260.185,132.395 260.519,133.395 262.5,134C 261.069,134.465 259.903,135.299 259,136.5C 257.667,135.833 256.667,134.833 256,133.5C 255.617,134.056 255.117,134.389 254.5,134.5C 250.217,128.584 247.551,121.917 246.5,114.5C 246.5,113.5 246.5,112.5 246.5,111.5C 247.552,111.649 248.552,111.483 249.5,111C 249.167,110.667 248.833,110.333 248.5,110C 249.579,109.044 250.745,108.211 252,107.5C 252.25,110.85 253.083,114.017 254.5,117C 250.81,119.116 250.81,120.949 254.5,122.5C 253.355,123.891 253.355,125.224 254.5,126.5C 255.151,124.153 256.484,122.486 258.5,121.5 Z"/></g>
<g><path style="opacity:1" fill="#ff5a25" d="M 258.5,123.5 C 259.467,124.806 260.801,125.473 262.5,125.5C 262.238,126.978 262.571,128.311 263.5,129.5C 269.373,133.244 275.539,133.911 282,131.5C 283.261,131.759 284.261,132.426 285,133.5C 285.333,132.5 285.667,131.5 286,130.5C 288.309,131.975 290.476,133.642 292.5,135.5C 293.816,132.972 294.983,132.972 296,135.5C 296.671,134.748 297.504,134.414 298.5,134.5C 292.23,141.644 284.23,144.978 274.5,144.5C 266.204,144.403 259.537,141.069 254.5,134.5C 255.117,134.389 255.617,134.056 256,133.5C 256.667,134.833 257.667,135.833 259,136.5C 259.903,135.299 261.069,134.465 262.5,134C 260.519,133.395 260.185,132.395 261.5,131C 259.934,129.216 258.601,127.216 257.5,125C 257.57,124.235 257.903,123.735 258.5,123.5 Z"/></g>
<g><path style="opacity:1" fill="#ff5946" d="M 237.5,134.5 C 247.244,138.279 247.578,142.612 238.5,147.5C 235.8,145.766 233.8,143.432 232.5,140.5C 234.19,138.481 235.856,136.481 237.5,134.5 Z"/></g>
<g><path style="opacity:1" fill="#254581" d="M 192.5,147.5 C 198.481,149.462 198.814,152.129 193.5,155.5C 188.691,153.257 188.357,150.591 192.5,147.5 Z"/></g>
<g><path style="opacity:1" fill="#6d84ac" d="M 226.5,150.5 C 239.4,155.044 246.067,164.044 246.5,177.5C 245.293,168.931 241.293,161.764 234.5,156C 232.051,155.275 229.717,154.275 227.5,153C 226.748,152.329 226.414,151.496 226.5,150.5 Z"/></g>
<g><path style="opacity:1" fill="#6b83ab" d="M 292.5,156.5 C 293.552,156.351 294.552,156.517 295.5,157C 290.754,159.407 286.254,162.24 282,165.5C 278.458,169.699 275.791,174.365 274,179.5C 273.719,175.011 275.052,171.011 278,167.5C 281.906,162.404 286.739,158.738 292.5,156.5 Z"/></g>
<g><path style="opacity:1" fill="#e0f2ff" d="M 262.5,173.5 C 263.552,173.351 264.552,173.517 265.5,174C 267.181,176.344 268.848,178.677 270.5,181C 267.984,183.186 265.484,185.352 263,187.5C 260.47,185.304 258.303,182.804 256.5,180C 258.372,177.632 260.372,175.465 262.5,173.5 Z"/></g>
<g><path style="opacity:1" fill="#0e294c" d="M 237.5,197.5 C 239.483,198.471 241.483,199.471 243.5,200.5C 239.44,200.551 236.773,202.551 235.5,206.5C 233.345,208.617 232.345,211.284 232.5,214.5C 231.566,215.568 231.232,216.901 231.5,218.5C 231.5,219.5 231.5,220.5 231.5,221.5C 229.701,224.505 229.034,227.838 229.5,231.5C 228.662,231.842 228.328,232.508 228.5,233.5C 226.423,237.497 225.09,241.831 224.5,246.5C 222.553,250.78 219.553,254.113 215.5,256.5C 213.666,257.494 211.999,257.494 210.5,256.5C 211.791,255.458 211.791,254.292 210.5,253C 205.481,252.942 200.648,252.108 196,250.5C 193.678,245.057 192.178,239.39 191.5,233.5C 191.5,231.833 191.5,230.167 191.5,228.5C 193.735,228.795 195.735,228.461 197.5,227.5C 201.81,224.755 205.643,221.421 209,217.5C 211.243,212.679 213.743,208.012 216.5,203.5C 222.346,197.974 229.346,195.974 237.5,197.5 Z"/></g>
<g><path style="opacity:1" fill="#f0bcb4" d="M 243.5,200.5 C 245.86,201.865 247.527,203.865 248.5,206.5C 246.231,208.996 244.898,211.996 244.5,215.5C 240.695,218.261 236.361,219.261 231.5,218.5C 231.232,216.901 231.566,215.568 232.5,214.5C 233.871,212.064 234.871,209.397 235.5,206.5C 236.773,202.551 239.44,200.551 243.5,200.5 Z"/></g>
<g><path style="opacity:1" fill="#676273" d="M 235.5,206.5 C 234.871,209.397 233.871,212.064 232.5,214.5C 232.345,211.284 233.345,208.617 235.5,206.5 Z"/></g>
<g><path style="opacity:1" fill="#7377a0" d="M 237.5,197.5 C 229.346,195.974 222.346,197.974 216.5,203.5C 216.565,203.062 216.399,202.728 216,202.5C 211.844,207.988 207.344,213.154 202.5,218C 196.072,222.437 189.572,222.604 183,218.5C 182.312,217.668 182.479,217.002 183.5,216.5C 188.083,219.953 193.083,220.453 198.5,218C 205.02,212.981 210.686,207.147 215.5,200.5C 222.183,193.835 229.516,192.835 237.5,197.5 Z"/></g>
<g><path style="opacity:1" fill="#5892f6" d="M 259.5,218.5 C 257.135,219.594 254.635,220.261 252,220.5C 249.239,219.582 246.406,218.916 243.5,218.5C 245.524,230.148 240.524,235.481 228.5,234.5C 228.5,234.167 228.5,233.833 228.5,233.5C 228.328,232.508 228.662,231.842 229.5,231.5C 236.002,233.225 240.336,230.725 242.5,224C 242.241,222.739 241.574,221.739 240.5,221C 237.445,220.366 234.445,220.532 231.5,221.5C 231.5,220.5 231.5,219.5 231.5,218.5C 236.361,219.261 240.695,218.261 244.5,215.5C 244.898,211.996 246.231,208.996 248.5,206.5C 254.093,202.229 259.26,202.562 264,207.5C 264.808,209.579 264.641,211.579 263.5,213.5C 262.143,215.186 260.81,216.852 259.5,218.5 Z"/></g>
<g><path style="opacity:1" fill="#f5c0b8" d="M 252.5,208.5 C 255.243,210.239 257.243,212.573 258.5,215.5C 255.275,218.955 251.775,219.289 248,216.5C 246.752,212.255 248.252,209.588 252.5,208.5 Z"/></g>
<g><path style="opacity:1" fill="#f4f4f9" d="M 258.5,215.5 C 257.243,212.573 255.243,210.239 252.5,208.5C 253.334,207.252 254.667,206.585 256.5,206.5C 261.069,206.098 262.569,208.098 261,212.5C 260.623,213.942 259.79,214.942 258.5,215.5 Z"/></g>
<g><path style="opacity:1" fill="#fcc2b6" d="M 303.5,295.5 C 298.695,300.134 293.695,304.634 288.5,309C 287.423,309.47 286.423,309.303 285.5,308.5C 285.167,307.5 284.5,306.833 283.5,306.5C 276.887,296.889 269.554,287.889 261.5,279.5C 256.46,275.461 252.127,270.794 248.5,265.5C 249.414,262.272 249.747,258.939 249.5,255.5C 246.432,255.453 243.432,254.953 240.5,254C 234.983,250.981 230.65,246.815 227.5,241.5C 227.674,239.139 228.007,236.806 228.5,234.5C 240.524,235.481 245.524,230.148 243.5,218.5C 246.406,218.916 249.239,219.582 252,220.5C 254.635,220.261 257.135,219.594 259.5,218.5C 261.624,219.031 263.124,220.365 264,222.5C 267.674,231.026 268.174,239.693 265.5,248.5C 268.5,247.833 271.5,247.167 274.5,246.5C 271.804,237.712 270.97,228.712 272,219.5C 272.71,218.027 273.876,217.36 275.5,217.5C 275.34,219.199 275.506,220.866 276,222.5C 277.685,220.983 279.185,219.316 280.5,217.5C 280.833,218 281.167,218.5 281.5,219C 278.569,228.885 278.902,238.552 282.5,248C 282.167,248.833 281.833,249.667 281.5,250.5C 275.653,254.591 269.987,258.924 264.5,263.5C 263.48,265.432 263.313,267.432 264,269.5C 275.683,275.929 287.183,282.762 298.5,290C 300.373,291.704 302.04,293.537 303.5,295.5 Z"/></g>
<g><path style="opacity:1" fill="#f1beb7" d="M 229.5,231.5 C 229.034,227.838 229.701,224.505 231.5,221.5C 234.445,220.532 237.445,220.366 240.5,221C 241.574,221.739 242.241,222.739 242.5,224C 240.336,230.725 236.002,233.225 229.5,231.5 Z"/></g>
<g><path style="opacity:1" fill="#77879b" d="M 197.5,227.5 C 195.735,228.461 193.735,228.795 191.5,228.5C 191.5,230.167 191.5,231.833 191.5,233.5C 190.539,231.735 190.205,229.735 190.5,227.5C 192.833,227.5 195.167,227.5 197.5,227.5 Z"/></g>
<g><path style="opacity:1" fill="#4c526a" d="M 228.5,233.5 C 228.5,233.833 228.5,234.167 228.5,234.5C 228.007,236.806 227.674,239.139 227.5,241.5C 226.566,242.568 226.232,243.901 226.5,245.5C 225.833,245.833 225.167,246.167 224.5,246.5C 225.09,241.831 226.423,237.497 228.5,233.5 Z"/></g>
<g><path style="opacity:1" fill="#9ba7b6" d="M 210.5,256.5 C 211.999,257.494 213.666,257.494 215.5,256.5C 213.912,258.616 211.912,258.949 209.5,257.5C 209.624,256.893 209.957,256.56 210.5,256.5 Z"/></g>
<g><path style="opacity:1" fill="#f6ada2" d="M 227.5,241.5 C 230.65,246.815 234.983,250.981 240.5,254C 243.432,254.953 246.432,255.453 249.5,255.5C 249.747,258.939 249.414,262.272 248.5,265.5C 248.5,269.167 248.5,272.833 248.5,276.5C 244.794,278.426 240.794,279.426 236.5,279.5C 234.343,278.593 232.01,277.927 229.5,277.5C 228.508,277.672 227.842,277.338 227.5,276.5C 227.678,266.247 227.345,255.914 226.5,245.5C 226.232,243.901 226.566,242.568 227.5,241.5 Z"/></g>
<g><path style="opacity:1" fill="#f5f4f6" d="M 248.5,265.5 C 252.127,270.794 256.46,275.461 261.5,279.5C 257.209,278.222 252.876,277.222 248.5,276.5C 248.5,272.833 248.5,269.167 248.5,265.5 Z"/></g>
<g><path style="opacity:1" fill="#0589ec" d="M 227.5,276.5 C 227.842,277.338 228.508,277.672 229.5,277.5C 229.611,278.117 229.944,278.617 230.5,279C 232.473,279.495 234.473,279.662 236.5,279.5C 240.794,279.426 244.794,278.426 248.5,276.5C 252.876,277.222 257.209,278.222 261.5,279.5C 269.554,287.889 276.887,296.889 283.5,306.5C 282.206,305.71 281.039,304.71 280,303.5C 279.383,304.449 279.549,305.282 280.5,306C 276.264,307.715 275.43,310.548 278,314.5C 279.551,319.026 281.551,323.359 284,327.5C 284.893,326.289 285.726,326.289 286.5,327.5C 285.319,329.198 285.319,330.865 286.5,332.5C 289.939,337.73 293.606,342.73 297.5,347.5C 296.527,349.948 296.194,352.615 296.5,355.5C 278.5,355.5 260.5,355.5 242.5,355.5C 242.657,354.127 242.49,352.793 242,351.5C 237.582,346.991 233.415,343.991 229.5,342.5C 229.307,346.449 228.807,346.449 228,342.5C 227.632,343.91 226.799,344.91 225.5,345.5C 224.005,344.295 222.672,344.295 221.5,345.5C 220.508,345.672 219.842,345.338 219.5,344.5C 220.332,343.671 219.999,342.838 218.5,342C 214.899,341.557 211.565,340.39 208.5,338.5C 206.73,337.18 206.397,335.68 207.5,334C 205.899,333.727 204.399,333.227 203,332.5C 202.683,334.301 202.016,334.634 201,333.5C 200.73,332.068 201.396,331.068 203,330.5C 204.049,331.517 205.216,331.684 206.5,331C 204.416,329.229 202.082,327.896 199.5,327C 200.448,326.517 201.448,326.351 202.5,326.5C 202.34,324.801 202.506,323.134 203,321.5C 203.837,323.007 205.004,323.507 206.5,323C 204.294,320.791 203.96,318.291 205.5,315.5C 204.833,315.167 204.167,314.833 203.5,314.5C 204.025,313.808 204.692,313.308 205.5,313C 202.536,312.16 202.203,311.16 204.5,310C 203.944,309.617 203.611,309.117 203.5,308.5C 203.721,307.265 204.388,306.265 205.5,305.5C 204.787,303.224 204.287,300.891 204,298.5C 203.667,299.5 203.333,300.5 203,301.5C 202.365,300.034 201.531,298.7 200.5,297.5C 201.274,296.289 202.107,296.289 203,297.5C 203.84,294.536 204.84,294.203 206,296.5C 206.333,295.833 206.667,295.167 207,294.5C 207.718,295.451 208.551,295.617 209.5,295C 208.643,294.311 207.977,293.478 207.5,292.5C 209.287,291.684 210.954,290.684 212.5,289.5C 211.167,288.167 211.167,286.833 212.5,285.5C 211.284,284.904 209.951,284.737 208.5,285C 209.313,283.686 210.313,282.519 211.5,281.5C 210.167,280.5 210.167,279.5 211.5,278.5C 210.675,277.614 209.675,277.281 208.5,277.5C 205.402,284.789 201.736,291.789 197.5,298.5C 191.867,310.955 189.201,323.955 189.5,337.5C 184.614,335.863 179.947,336.363 175.5,339C 180.858,339.333 186.192,340.333 191.5,342C 192.167,342.333 192.833,342.667 193.5,343C 192.216,343.684 191.049,343.517 190,342.5C 189.333,343.167 189.333,343.833 190,344.5C 192.312,344.955 194.312,345.955 196,347.5C 197.362,346.075 198.862,345.242 200.5,345C 199.167,346 199.167,347 200.5,348C 199.687,349.314 198.687,350.481 197.5,351.5C 198.533,352.452 199.7,352.452 201,351.5C 202.626,352.289 204.126,353.289 205.5,354.5C 206.192,353.975 206.692,353.308 207,352.5C 209.279,354.289 211.279,356.289 213,358.5C 214.912,357.308 216.912,356.308 219,355.5C 219.333,356.5 219.667,357.5 220,358.5C 220.17,356.285 220.837,354.285 222,352.5C 222.605,354.481 223.605,354.815 225,353.5C 226.582,354.96 227.915,356.627 229,358.5C 229.915,357.672 230.581,356.672 231,355.5C 231.232,356.737 231.732,357.737 232.5,358.5C 232.5,362.5 232.5,366.5 232.5,370.5C 231.518,369.859 230.518,369.193 229.5,368.5C 229.167,368.833 228.833,369.167 228.5,369.5C 229.811,370.258 230.311,371.258 230,372.5C 228.594,371.332 227.428,371.665 226.5,373.5C 224.997,372.41 224.664,371.243 225.5,370C 223.782,369.654 222.115,369.154 220.5,368.5C 219.833,369.167 219.167,369.833 218.5,370.5C 216.971,369.237 215.305,368.237 213.5,367.5C 212.425,368.562 211.425,368.562 210.5,367.5C 210.623,365.622 210.623,363.789 210.5,362C 207.508,360.912 206.508,361.579 207.5,364C 206.115,365.597 205.449,367.43 205.5,369.5C 202.203,369.671 201.869,369.005 204.5,367.5C 203.483,364.972 202.316,364.972 201,367.5C 200.691,365.609 201.525,364.275 203.5,363.5C 201.956,362.378 200.623,362.711 199.5,364.5C 198.252,363.96 197.085,363.293 196,362.5C 195.383,363.449 195.549,364.282 196.5,365C 195.096,366.337 193.596,367.503 192,368.5C 191.228,368.355 190.561,368.022 190,367.5C 187.215,368.895 184.382,370.228 181.5,371.5C 180.261,369.993 180.595,368.826 182.5,368C 180.273,366.165 178.44,366.665 177,369.5C 175.691,367.109 174.691,367.109 174,369.5C 173.667,368.833 173.333,368.167 173,367.5C 172.302,368.691 171.469,369.691 170.5,370.5C 169.312,369.316 168.145,369.316 167,370.5C 166.781,369.062 166.281,367.729 165.5,366.5C 164.914,366.709 164.414,367.043 164,367.5C 163.021,365.68 161.521,364.513 159.5,364C 160.711,363.107 160.711,362.274 159.5,361.5C 158.808,362.025 158.308,362.692 158,363.5C 156.256,362.351 156.089,361.017 157.5,359.5C 156.724,357.644 155.391,356.311 153.5,355.5C 154.326,354.549 154.492,353.549 154,352.5C 152.333,353.5 150.667,354.5 149,355.5C 146.904,354.285 147.071,353.451 149.5,353C 148.101,352.405 146.768,352.572 145.5,353.5C 144.887,354.98 144.554,356.313 144.5,357.5C 143.735,356.388 142.735,355.721 141.5,355.5C 141.5,355.167 141.5,354.833 141.5,354.5C 141.5,354.167 141.5,353.833 141.5,353.5C 142.496,350.208 143.496,346.875 144.5,343.5C 158.347,316.148 178.347,294.315 204.5,278C 212.08,276.604 219.747,276.104 227.5,276.5 Z"/></g>
<g><path style="opacity:1" fill="#b5a5b7" d="M 229.5,277.5 C 232.01,277.927 234.343,278.593 236.5,279.5C 234.473,279.662 232.473,279.495 230.5,279C 229.944,278.617 229.611,278.117 229.5,277.5 Z"/></g>
<g><path style="opacity:1" fill="#0175ed" d="M 203.5,308.5 C 200.997,305.362 198.997,302.028 197.5,298.5C 201.736,291.789 205.402,284.789 208.5,277.5C 209.675,277.281 210.675,277.614 211.5,278.5C 210.167,279.5 210.167,280.5 211.5,281.5C 210.313,282.519 209.313,283.686 208.5,285C 209.951,284.737 211.284,284.904 212.5,285.5C 211.167,286.833 211.167,288.167 212.5,289.5C 210.954,290.684 209.287,291.684 207.5,292.5C 207.977,293.478 208.643,294.311 209.5,295C 208.551,295.617 207.718,295.451 207,294.5C 206.667,295.167 206.333,295.833 206,296.5C 204.84,294.203 203.84,294.536 203,297.5C 202.107,296.289 201.274,296.289 200.5,297.5C 201.531,298.7 202.365,300.034 203,301.5C 203.333,300.5 203.667,299.5 204,298.5C 204.287,300.891 204.787,303.224 205.5,305.5C 204.388,306.265 203.721,307.265 203.5,308.5 Z"/></g>
<g><path style="opacity:1" fill="#068aec" d="M 303.5,295.5 C 306.518,295.704 309.518,296.037 312.5,296.5C 313.681,298.067 315.347,298.901 317.5,299C 315.015,300.223 314.848,301.723 317,303.5C 317.333,302.5 317.667,301.5 318,300.5C 320.225,302.366 322.725,303.866 325.5,305C 325.167,305.333 324.833,305.667 324.5,306C 325.833,306.333 327.167,306.667 328.5,307C 327.185,308.395 327.519,309.395 329.5,310C 327.536,310.624 325.869,310.124 324.5,308.5C 324.167,308.833 323.833,309.167 323.5,309.5C 326.609,311.475 329.443,313.808 332,316.5C 332.483,317.448 332.649,318.448 332.5,319.5C 334.467,319.739 336.301,319.406 338,318.5C 338.639,321.112 339.806,323.446 341.5,325.5C 342.391,326.59 343.391,326.59 344.5,325.5C 345.833,328.167 347.833,330.167 350.5,331.5C 349.167,331.833 347.833,332.167 346.5,332.5C 347.328,333.415 348.328,334.081 349.5,334.5C 350.768,333.572 352.101,333.405 353.5,334C 352.448,335.716 353.114,336.716 355.5,337C 354.692,337.308 354.025,337.808 353.5,338.5C 354.5,340.5 355.5,342.5 356.5,344.5C 356.291,345.086 355.957,345.586 355.5,346C 357.531,346.632 359.198,347.799 360.5,349.5C 360.062,350.506 359.396,350.506 358.5,349.5C 357.479,350.002 357.312,350.668 358,351.5C 359.353,352.685 360.52,354.019 361.5,355.5C 363.006,356.23 364.34,356.563 365.5,356.5C 362.972,357.816 362.972,358.983 365.5,360C 364.874,360.75 364.374,361.584 364,362.5C 362.817,361.269 361.651,361.269 360.5,362.5C 362.562,363.994 364.562,365.66 366.5,367.5C 364.369,368.169 362.369,368.835 360.5,369.5C 349.954,369.625 339.62,368.292 329.5,365.5C 328.306,364.728 327.306,363.728 326.5,362.5C 329.827,363.537 333.161,364.704 336.5,366C 338.259,366.798 339.926,366.631 341.5,365.5C 333.748,360.785 325.748,356.285 317.5,352C 313.067,348.55 308.734,345.05 304.5,341.5C 296.155,332.854 290.822,322.52 288.5,310.5C 286.821,310.715 285.821,310.048 285.5,308.5C 286.423,309.303 287.423,309.47 288.5,309C 293.695,304.634 298.695,300.134 303.5,295.5 Z"/></g>
<g><path style="opacity:1" fill="#026eee" d="M 197.5,298.5 C 198.997,302.028 200.997,305.362 203.5,308.5C 203.611,309.117 203.944,309.617 204.5,310C 202.203,311.16 202.536,312.16 205.5,313C 204.692,313.308 204.025,313.808 203.5,314.5C 204.167,314.833 204.833,315.167 205.5,315.5C 203.96,318.291 204.294,320.791 206.5,323C 205.004,323.507 203.837,323.007 203,321.5C 202.506,323.134 202.34,324.801 202.5,326.5C 201.448,326.351 200.448,326.517 199.5,327C 202.082,327.896 204.416,329.229 206.5,331C 205.216,331.684 204.049,331.517 203,330.5C 201.396,331.068 200.73,332.068 201,333.5C 202.016,334.634 202.683,334.301 203,332.5C 204.399,333.227 205.899,333.727 207.5,334C 206.397,335.68 206.73,337.18 208.5,338.5C 211.565,340.39 214.899,341.557 218.5,342C 219.999,342.838 220.332,343.671 219.5,344.5C 213.421,342.962 207.421,341.129 201.5,339C 197.534,338.172 193.534,337.672 189.5,337.5C 189.201,323.955 191.867,310.955 197.5,298.5 Z"/></g>
<g><path style="opacity:1" fill="#219ef5" d="M 189.5,337.5 C 193.534,337.672 197.534,338.172 201.5,339C 207.421,341.129 213.421,342.962 219.5,344.5C 219.842,345.338 220.508,345.672 221.5,345.5C 224.422,347.709 227.755,349.209 231.5,350C 232.381,350.708 233.047,351.542 233.5,352.5C 232.539,354.265 232.205,356.265 232.5,358.5C 231.732,357.737 231.232,356.737 231,355.5C 230.581,356.672 229.915,357.672 229,358.5C 227.915,356.627 226.582,354.96 225,353.5C 223.605,354.815 222.605,354.481 222,352.5C 220.837,354.285 220.17,356.285 220,358.5C 219.667,357.5 219.333,356.5 219,355.5C 216.912,356.308 214.912,357.308 213,358.5C 211.279,356.289 209.279,354.289 207,352.5C 206.692,353.308 206.192,353.975 205.5,354.5C 204.126,353.289 202.626,352.289 201,351.5C 199.7,352.452 198.533,352.452 197.5,351.5C 198.687,350.481 199.687,349.314 200.5,348C 199.167,347 199.167,346 200.5,345C 198.862,345.242 197.362,346.075 196,347.5C 194.312,345.955 192.312,344.955 190,344.5C 189.333,343.833 189.333,343.167 190,342.5C 191.049,343.517 192.216,343.684 193.5,343C 192.833,342.667 192.167,342.333 191.5,342C 186.192,340.333 180.858,339.333 175.5,339C 179.947,336.363 184.614,335.863 189.5,337.5 Z"/></g>
<g><path style="opacity:1" fill="#41a9f6" d="M 360.5,331.5 C 365.798,339.634 369.131,348.634 370.5,358.5C 368.904,356.168 367.738,353.501 367,350.5C 366.107,351.711 365.274,351.711 364.5,350.5C 363.833,348.833 363.167,347.167 362.5,345.5C 363.247,345.264 364.08,344.93 365,344.5C 365.667,343.833 365.667,343.167 365,342.5C 363.467,342.944 361.967,343.277 360.5,343.5C 359.167,342.833 358.167,341.833 357.5,340.5C 358.737,339.719 359.737,338.719 360.5,337.5C 358.833,336.5 357.5,335.167 356.5,333.5C 357.391,332.41 358.391,332.41 359.5,333.5C 360.298,333.043 360.631,332.376 360.5,331.5 Z"/></g>
<g><path style="opacity:1" fill="#1079ec" d="M 242.5,355.5 C 241.5,355.5 240.5,355.5 239.5,355.5C 237.716,355.107 236.05,354.441 234.5,353.5C 234.5,352.833 234.167,352.5 233.5,352.5C 233.047,351.542 232.381,350.708 231.5,350C 227.755,349.209 224.422,347.709 221.5,345.5C 222.672,344.295 224.005,344.295 225.5,345.5C 226.799,344.91 227.632,343.91 228,342.5C 228.807,346.449 229.307,346.449 229.5,342.5C 233.415,343.991 237.582,346.991 242,351.5C 242.49,352.793 242.657,354.127 242.5,355.5 Z"/></g>
<g><path style="opacity:1" fill="#71baf3" d="M 144.5,343.5 C 143.496,346.875 142.496,350.208 141.5,353.5C 141.025,349.584 142.025,346.251 144.5,343.5 Z"/></g>
<g><path style="opacity:1" fill="#1d98f2" d="M 312.5,296.5 C 329.746,301.88 344.579,311.213 357,324.5C 358.705,326.577 359.872,328.91 360.5,331.5C 360.631,332.376 360.298,333.043 359.5,333.5C 358.391,332.41 357.391,332.41 356.5,333.5C 357.5,335.167 358.833,336.5 360.5,337.5C 359.737,338.719 358.737,339.719 357.5,340.5C 358.167,341.833 359.167,342.833 360.5,343.5C 361.967,343.277 363.467,342.944 365,342.5C 365.667,343.167 365.667,343.833 365,344.5C 364.08,344.93 363.247,345.264 362.5,345.5C 363.167,347.167 363.833,348.833 364.5,350.5C 365.274,351.711 366.107,351.711 367,350.5C 367.738,353.501 368.904,356.168 370.5,358.5C 371.167,358.5 371.5,358.833 371.5,359.5C 372.37,367.591 368.703,370.924 360.5,369.5C 362.369,368.835 364.369,368.169 366.5,367.5C 364.562,365.66 362.562,363.994 360.5,362.5C 361.651,361.269 362.817,361.269 364,362.5C 364.374,361.584 364.874,360.75 365.5,360C 362.972,358.983 362.972,357.816 365.5,356.5C 364.34,356.563 363.006,356.23 361.5,355.5C 360.52,354.019 359.353,352.685 358,351.5C 357.312,350.668 357.479,350.002 358.5,349.5C 359.396,350.506 360.062,350.506 360.5,349.5C 359.198,347.799 357.531,346.632 355.5,346C 355.957,345.586 356.291,345.086 356.5,344.5C 355.5,342.5 354.5,340.5 353.5,338.5C 354.025,337.808 354.692,337.308 355.5,337C 353.114,336.716 352.448,335.716 353.5,334C 352.101,333.405 350.768,333.572 349.5,334.5C 348.328,334.081 347.328,333.415 346.5,332.5C 347.833,332.167 349.167,331.833 350.5,331.5C 347.833,330.167 345.833,328.167 344.5,325.5C 343.391,326.59 342.391,326.59 341.5,325.5C 339.806,323.446 338.639,321.112 338,318.5C 336.301,319.406 334.467,319.739 332.5,319.5C 332.649,318.448 332.483,317.448 332,316.5C 329.443,313.808 326.609,311.475 323.5,309.5C 323.833,309.167 324.167,308.833 324.5,308.5C 325.869,310.124 327.536,310.624 329.5,310C 327.519,309.395 327.185,308.395 328.5,307C 327.167,306.667 325.833,306.333 324.5,306C 324.833,305.667 325.167,305.333 325.5,305C 322.725,303.866 320.225,302.366 318,300.5C 317.667,301.5 317.333,302.5 317,303.5C 314.848,301.723 315.015,300.223 317.5,299C 315.347,298.901 313.681,298.067 312.5,296.5 Z"/></g>
<g><path style="opacity:1" fill="#6ab4f4" d="M 297.5,347.5 C 298.492,347.328 299.158,347.662 299.5,348.5C 297.631,350.635 296.964,353.302 297.5,356.5C 278.833,356.5 260.167,356.5 241.5,356.5C 240.508,356.672 239.842,356.338 239.5,355.5C 240.5,355.5 241.5,355.5 242.5,355.5C 260.5,355.5 278.5,355.5 296.5,355.5C 296.194,352.615 296.527,349.948 297.5,347.5 Z"/></g>
<g><path style="opacity:1" fill="#fdc2b7" d="M 234.5,353.5 C 236.05,354.441 237.716,355.107 239.5,355.5C 239.842,356.338 240.508,356.672 241.5,356.5C 247.903,361.27 255.237,363.937 263.5,364.5C 272.421,362.395 281.254,360.062 290,357.5C 293.68,358.813 297.18,360.646 300.5,363C 302.813,363.662 305.146,364.162 307.5,364.5C 307.918,365.222 308.584,365.722 309.5,366C 316.655,366.435 323.655,367.601 330.5,369.5C 327.313,370.865 323.98,371.699 320.5,372C 322.725,372.876 324.725,374.043 326.5,375.5C 325.23,376.288 324.23,377.288 323.5,378.5C 313.01,379.51 304.344,376.01 297.5,368C 296.5,367.833 295.5,367.667 294.5,367.5C 289.329,370.251 283.995,372.751 278.5,375C 263.477,375.247 248.477,374.747 233.5,373.5C 233.176,366.646 233.509,359.979 234.5,353.5 Z"/></g>
<g><path style="opacity:1" fill="#e4eefc" d="M 299.5,348.5 C 301.668,351.5 304.334,354 307.5,356C 313.627,358.876 319.961,361.042 326.5,362.5C 327.306,363.728 328.306,364.728 329.5,365.5C 322.195,366.021 314.862,365.687 307.5,364.5C 305.146,364.162 302.813,363.662 300.5,363C 297.18,360.646 293.68,358.813 290,357.5C 281.254,360.062 272.421,362.395 263.5,364.5C 255.237,363.937 247.903,361.27 241.5,356.5C 260.167,356.5 278.833,356.5 297.5,356.5C 296.964,353.302 297.631,350.635 299.5,348.5 Z"/></g>
<g><path style="opacity:1" fill="#0871ed" d="M 283.5,306.5 C 284.5,306.833 285.167,307.5 285.5,308.5C 285.821,310.048 286.821,310.715 288.5,310.5C 290.822,322.52 296.155,332.854 304.5,341.5C 308.734,345.05 313.067,348.55 317.5,352C 325.748,356.285 333.748,360.785 341.5,365.5C 339.926,366.631 338.259,366.798 336.5,366C 333.161,364.704 329.827,363.537 326.5,362.5C 319.961,361.042 313.627,358.876 307.5,356C 304.334,354 301.668,351.5 299.5,348.5C 299.158,347.662 298.492,347.328 297.5,347.5C 293.606,342.73 289.939,337.73 286.5,332.5C 285.319,330.865 285.319,329.198 286.5,327.5C 285.726,326.289 284.893,326.289 284,327.5C 281.551,323.359 279.551,319.026 278,314.5C 275.43,310.548 276.264,307.715 280.5,306C 279.549,305.282 279.383,304.449 280,303.5C 281.039,304.71 282.206,305.71 283.5,306.5 Z"/></g>
<g><path style="opacity:1" fill="#057bed" d="M 170.5,370.5 C 173.484,371.325 176.151,372.659 178.5,374.5C 177.448,374.351 176.448,374.517 175.5,375C 174.924,377.268 173.59,378.268 171.5,378C 173.524,376.542 173.691,374.709 172,372.5C 171.667,373.5 171.333,374.5 171,375.5C 170.094,373.388 168.594,372.555 166.5,373C 168.61,374.895 168.277,376.728 165.5,378.5C 164.304,378.154 164.304,377.654 165.5,377C 164.451,376.508 163.451,376.674 162.5,377.5C 161.177,375.796 161.51,374.463 163.5,373.5C 165.214,374.609 165.881,373.942 165.5,371.5C 162,371.61 158.666,372.443 155.5,374C 154.402,374.77 154.402,375.603 155.5,376.5C 153.938,376.267 152.605,375.6 151.5,374.5C 151.167,373.833 150.833,373.167 150.5,372.5C 152.806,373.785 154.639,373.118 156,370.5C 156.414,370.957 156.914,371.291 157.5,371.5C 159.817,369.263 159.983,366.93 158,364.5C 156.254,367.981 154.087,368.315 151.5,365.5C 154.048,363.781 153.715,362.448 150.5,361.5C 151.326,360.549 151.492,359.549 151,358.5C 148.778,361.044 146.611,361.044 144.5,358.5C 143.548,360.045 143.215,361.712 143.5,363.5C 141.96,361.162 141.294,358.495 141.5,355.5C 142.735,355.721 143.735,356.388 144.5,357.5C 144.554,356.313 144.887,354.98 145.5,353.5C 146.768,352.572 148.101,352.405 149.5,353C 147.071,353.451 146.904,354.285 149,355.5C 150.667,354.5 152.333,353.5 154,352.5C 154.492,353.549 154.326,354.549 153.5,355.5C 155.391,356.311 156.724,357.644 157.5,359.5C 156.089,361.017 156.256,362.351 158,363.5C 158.308,362.692 158.808,362.025 159.5,361.5C 160.711,362.274 160.711,363.107 159.5,364C 161.521,364.513 163.021,365.68 164,367.5C 164.414,367.043 164.914,366.709 165.5,366.5C 166.281,367.729 166.781,369.062 167,370.5C 168.145,369.316 169.312,369.316 170.5,370.5 Z"/></g>
<g><path style="opacity:1" fill="#0184ec" d="M 213.5,367.5 C 211.653,370.444 208.986,372.444 205.5,373.5C 203.781,370.952 202.448,371.285 201.5,374.5C 200.833,373.5 200.167,372.5 199.5,371.5C 198.167,372.833 196.833,372.833 195.5,371.5C 194.396,372.631 194.729,373.465 196.5,374C 195.128,374.402 193.795,374.902 192.5,375.5C 192.331,374.603 191.998,373.603 191.5,372.5C 190.416,373.665 189.583,374.998 189,376.5C 187.2,374.855 185.2,373.522 183,372.5C 182.493,373.996 182.993,375.163 184.5,376C 181.697,378.394 179.697,377.894 178.5,374.5C 176.151,372.659 173.484,371.325 170.5,370.5C 171.469,369.691 172.302,368.691 173,367.5C 173.333,368.167 173.667,368.833 174,369.5C 174.691,367.109 175.691,367.109 177,369.5C 178.44,366.665 180.273,366.165 182.5,368C 180.595,368.826 180.261,369.993 181.5,371.5C 184.382,370.228 187.215,368.895 190,367.5C 190.561,368.022 191.228,368.355 192,368.5C 193.596,367.503 195.096,366.337 196.5,365C 195.549,364.282 195.383,363.449 196,362.5C 197.085,363.293 198.252,363.96 199.5,364.5C 200.623,362.711 201.956,362.378 203.5,363.5C 201.525,364.275 200.691,365.609 201,367.5C 202.316,364.972 203.483,364.972 204.5,367.5C 201.869,369.005 202.203,369.671 205.5,369.5C 205.449,367.43 206.115,365.597 207.5,364C 206.508,361.579 207.508,360.912 210.5,362C 210.623,363.789 210.623,365.622 210.5,367.5C 211.425,368.562 212.425,368.562 213.5,367.5 Z"/></g>
<g><path style="opacity:1" fill="#8aa7cf" d="M 233.5,352.5 C 234.167,352.5 234.5,352.833 234.5,353.5C 233.509,359.979 233.176,366.646 233.5,373.5C 233.167,373.5 232.833,373.5 232.5,373.5C 232.5,372.5 232.5,371.5 232.5,370.5C 232.5,366.5 232.5,362.5 232.5,358.5C 232.205,356.265 232.539,354.265 233.5,352.5 Z"/></g>
<g><path style="opacity:1" fill="#f3f8fe" d="M 141.5,354.5 C 141.5,354.833 141.5,355.167 141.5,355.5C 141.294,358.495 141.96,361.162 143.5,363.5C 144.718,367.383 147.051,370.383 150.5,372.5C 150.833,373.167 151.167,373.833 151.5,374.5C 150.504,374.586 149.671,374.252 149,373.5C 148.653,375.18 147.653,376.18 146,376.5C 142.646,376.459 139.313,376.459 136,376.5C 134.324,375.939 132.991,374.939 132,373.5C 130.934,375.099 129.434,376.099 127.5,376.5C 122.651,375.545 117.984,375.545 113.5,376.5C 111.566,376.099 110.066,375.099 109,373.5C 107.084,376.033 105.084,376.033 103,373.5C 101.914,375.847 100.581,375.847 99,373.5C 98.0497,374.022 97.2164,374.689 96.5,375.5C 95.4016,374.385 94.2349,374.385 93,375.5C 92.0497,374.978 91.2164,374.311 90.5,373.5C 88.6841,376.064 86.8508,376.064 85,373.5C 84,376.167 83,376.167 82,373.5C 81.3333,374.833 80.6667,374.833 80,373.5C 79.3333,376.167 78.6667,376.167 78,373.5C 75.9517,375.787 73.7851,375.954 71.5,374C 92.9773,363.84 115.477,358.007 139,356.5C 139.708,355.619 140.542,354.953 141.5,354.5 Z"/></g>
<g><path style="opacity:1" fill="#0670ed" d="M 150.5,372.5 C 147.051,370.383 144.718,367.383 143.5,363.5C 143.215,361.712 143.548,360.045 144.5,358.5C 146.611,361.044 148.778,361.044 151,358.5C 151.492,359.549 151.326,360.549 150.5,361.5C 153.715,362.448 154.048,363.781 151.5,365.5C 154.087,368.315 156.254,367.981 158,364.5C 159.983,366.93 159.817,369.263 157.5,371.5C 156.914,371.291 156.414,370.957 156,370.5C 154.639,373.118 152.806,373.785 150.5,372.5 Z"/></g>
<g><path style="opacity:1" fill="#f4f8fe" d="M 371.5,359.5 C 394.144,363.163 416.144,369.329 437.5,378C 439.947,379.229 440.113,380.729 438,382.5C 436.437,379.956 434.937,379.956 433.5,382.5C 432.106,380.016 430.606,380.016 429,382.5C 427.14,380.085 425.474,380.085 424,382.5C 422.333,379.833 420.667,379.833 419,382.5C 418.009,381.061 416.676,380.061 415,379.5C 411.796,379.759 408.63,379.759 405.5,379.5C 404.318,381.645 402.818,381.645 401,379.5C 400.667,380.167 400.333,380.833 400,381.5C 397.553,378.956 395.053,378.956 392.5,381.5C 390.958,380.253 389.458,380.253 388,381.5C 386.846,379.043 385.512,379.043 384,381.5C 382.609,379.285 380.943,379.285 379,381.5C 376.614,378.221 373.947,378.221 371,381.5C 369.62,378.942 368.12,378.942 366.5,381.5C 365.167,378.833 363.833,378.833 362.5,381.5C 359.252,378.881 356.085,378.881 353,381.5C 351.566,379.864 349.733,378.864 347.5,378.5C 339.593,379.259 331.593,379.259 323.5,378.5C 324.23,377.288 325.23,376.288 326.5,375.5C 324.725,374.043 322.725,372.876 320.5,372C 323.98,371.699 327.313,370.865 330.5,369.5C 323.655,367.601 316.655,366.435 309.5,366C 308.584,365.722 307.918,365.222 307.5,364.5C 314.862,365.687 322.195,366.021 329.5,365.5C 339.62,368.292 349.954,369.625 360.5,369.5C 368.703,370.924 372.37,367.591 371.5,359.5 Z"/></g>
<g><path style="opacity:1" fill="#0b74ed" d="M 213.5,367.5 C 215.305,368.237 216.971,369.237 218.5,370.5C 219.167,369.833 219.833,369.167 220.5,368.5C 222.115,369.154 223.782,369.654 225.5,370C 224.664,371.243 224.997,372.41 226.5,373.5C 227.428,371.665 228.594,371.332 230,372.5C 230.311,371.258 229.811,370.258 228.5,369.5C 228.833,369.167 229.167,368.833 229.5,368.5C 230.518,369.193 231.518,369.859 232.5,370.5C 232.5,371.5 232.5,372.5 232.5,373.5C 223.207,378.563 213.207,381.229 202.5,381.5C 189.831,381.233 177.164,380.9 164.5,380.5C 161.268,379.412 158.268,378.079 155.5,376.5C 154.402,375.603 154.402,374.77 155.5,374C 158.666,372.443 162,371.61 165.5,371.5C 165.881,373.942 165.214,374.609 163.5,373.5C 161.51,374.463 161.177,375.796 162.5,377.5C 163.451,376.674 164.451,376.508 165.5,377C 164.304,377.654 164.304,378.154 165.5,378.5C 168.277,376.728 168.61,374.895 166.5,373C 168.594,372.555 170.094,373.388 171,375.5C 171.333,374.5 171.667,373.5 172,372.5C 173.691,374.709 173.524,376.542 171.5,378C 173.59,378.268 174.924,377.268 175.5,375C 176.448,374.517 177.448,374.351 178.5,374.5C 179.697,377.894 181.697,378.394 184.5,376C 182.993,375.163 182.493,373.996 183,372.5C 185.2,373.522 187.2,374.855 189,376.5C 189.583,374.998 190.416,373.665 191.5,372.5C 191.998,373.603 192.331,374.603 192.5,375.5C 193.795,374.902 195.128,374.402 196.5,374C 194.729,373.465 194.396,372.631 195.5,371.5C 196.833,372.833 198.167,372.833 199.5,371.5C 200.167,372.5 200.833,373.5 201.5,374.5C 202.448,371.285 203.781,370.952 205.5,373.5C 208.986,372.444 211.653,370.444 213.5,367.5 Z"/></g>
<g><path style="opacity:1" fill="#8abbf6" d="M 164.5,380.5 C 177.164,380.9 189.831,381.233 202.5,381.5C 197.678,382.166 192.678,382.499 187.5,382.5C 179.611,382.656 171.944,381.99 164.5,380.5 Z"/></g>
</svg>
