<?xml version="1.0" encoding="UTF-8"?>
<!DOCTYPE svg PUBLIC "-//W3C//DTD SVG 1.1//EN" "http://www.w3.org/Graphics/SVG/1.1/DTD/svg11.dtd">
<svg xmlns="http://www.w3.org/2000/svg" version="1.1" width="512px" height="512px" style="shape-rendering:geometricPrecision; text-rendering:geometricPrecision; image-rendering:optimizeQuality; fill-rule:evenodd; clip-rule:evenodd" xmlns:xlink="http://www.w3.org/1999/xlink">
<g><path style="opacity:1" fill="#fefefe" d="M -0.5,-0.5 C 170.167,-0.5 340.833,-0.5 511.5,-0.5C 511.5,170.167 511.5,340.833 511.5,511.5C 340.833,511.5 170.167,511.5 -0.5,511.5C -0.5,340.833 -0.5,170.167 -0.5,-0.5 Z"/></g>
<g><path style="opacity:1" fill="#ffc161" d="M 307.5,157.5 C 302.073,158.523 296.74,159.857 291.5,161.5C 289.28,134.752 275.28,124.585 249.5,131C 243.595,134.07 239.262,138.57 236.5,144.5C 235.207,145.842 234.374,147.509 234,149.5C 233.19,153.358 233.357,157.024 234.5,160.5C 236.321,165.452 237.988,170.452 239.5,175.5C 234.465,177.041 229.465,178.708 224.5,180.5C 224.167,180.5 223.833,180.5 223.5,180.5C 222.513,174.371 221.013,168.371 219,162.5C 217.04,133.917 230.207,117.417 258.5,113C 278.176,111.922 292.676,120.089 302,137.5C 304.145,144.099 305.978,150.765 307.5,157.5 Z"/></g>
<g><path style="opacity:1" fill="#fffdfc" d="M 291.5,161.5 C 285.825,162.424 280.491,164.091 275.5,166.5C 273.901,166.232 272.568,166.566 271.5,167.5C 260.777,169.964 250.11,172.63 239.5,175.5C 237.988,170.452 236.321,165.452 234.5,160.5C 234.248,155.012 234.915,149.678 236.5,144.5C 239.262,138.57 243.595,134.07 249.5,131C 275.28,124.585 289.28,134.752 291.5,161.5 Z"/></g>
<g><path style="opacity:1" fill="#ffd799" d="M 236.5,144.5 C 234.915,149.678 234.248,155.012 234.5,160.5C 233.357,157.024 233.19,153.358 234,149.5C 234.374,147.509 235.207,145.842 236.5,144.5 Z"/></g>
<g><path style="opacity:1" fill="#ff9644" d="M 307.5,157.5 C 310.939,157.589 313.772,158.922 316,161.5C 317.863,165.649 319.03,169.982 319.5,174.5C 318.391,174.443 317.391,174.11 316.5,173.5C 316.301,171.04 315.635,168.707 314.5,166.5C 313.201,167.09 312.368,168.09 312,169.5C 311.506,167.866 311.34,166.199 311.5,164.5C 309.61,164.703 308.11,164.037 307,162.5C 306.751,163.624 306.251,164.624 305.5,165.5C 304.289,164.726 304.289,163.893 305.5,163C 304.207,162.51 302.873,162.343 301.5,162.5C 301.649,163.552 301.483,164.552 301,165.5C 298.176,158.733 297.009,158.9 297.5,166C 296.552,166.483 295.552,166.649 294.5,166.5C 294.719,167.675 294.386,168.675 293.5,169.5C 293.167,168.167 292.833,166.833 292.5,165.5C 291.808,166.025 291.308,166.692 291,167.5C 290.692,166.692 290.192,166.025 289.5,165.5C 286.93,166.634 284.264,167.468 281.5,168C 283.904,168.508 284.571,169.675 283.5,171.5C 281.49,170.498 279.49,169.498 277.5,168.5C 278.609,166.786 277.942,166.119 275.5,166.5C 280.491,164.091 285.825,162.424 291.5,161.5C 296.74,159.857 302.073,158.523 307.5,157.5 Z"/></g>
<g><path style="opacity:1" fill="#ff7035" d="M 271.5,167.5 C 273.167,167.5 274.833,167.5 276.5,167.5C 277.305,171.04 279.305,173.706 282.5,175.5C 281.674,176.451 281.508,177.451 282,178.5C 285.225,173.42 288.558,173.42 292,178.5C 292.49,177.207 292.657,175.873 292.5,174.5C 294.143,174.48 295.476,175.147 296.5,176.5C 297.167,175.167 297.833,173.833 298.5,172.5C 301.089,175.105 303.589,175.105 306,172.5C 308.383,174.385 310.216,176.718 311.5,179.5C 312.167,177.5 312.833,175.5 313.5,173.5C 314.534,176.125 315.534,176.125 316.5,173.5C 317.391,174.11 318.391,174.443 319.5,174.5C 324.571,186.688 326.738,199.354 326,212.5C 324.537,216.423 323.37,220.423 322.5,224.5C 321.094,224.973 320.427,225.973 320.5,227.5C 314.614,237.725 306.281,245.059 295.5,249.5C 295.103,247.338 293.769,246.005 291.5,245.5C 293.167,244.5 294.5,243.167 295.5,241.5C 294.398,240.824 293.398,240.158 292.5,239.5C 291.172,236.77 292.172,235.103 295.5,234.5C 295.023,233.522 294.357,232.689 293.5,232C 291.543,233.286 289.21,234.119 286.5,234.5C 286.688,232.897 286.188,231.563 285,230.5C 282.958,232.604 280.458,233.771 277.5,234C 276.251,236.979 274.584,237.146 272.5,234.5C 269.872,235.196 267.205,234.863 264.5,233.5C 264.167,233.833 263.833,234.167 263.5,234.5C 264.612,235.265 265.279,236.265 265.5,237.5C 263.863,238.218 262.197,238.384 260.5,238C 260.957,237.586 261.291,237.086 261.5,236.5C 259.992,234.8 258.492,233.134 257,231.5C 256.5,231.667 256,231.833 255.5,232C 256.57,234.229 257.403,236.395 258,238.5C 257.333,237.833 256.667,237.167 256,236.5C 255.282,237.451 254.449,237.617 253.5,237C 254.451,236.282 254.617,235.449 254,234.5C 252.301,235.406 250.467,235.739 248.5,235.5C 248.262,231.901 249.262,231.567 251.5,234.5C 252.59,233.609 252.59,232.609 251.5,231.5C 252.025,230.808 252.692,230.308 253.5,230C 250.558,227.639 249.891,224.806 251.5,221.5C 249.833,221.5 248.167,221.5 246.5,221.5C 246.5,220.167 246.5,218.833 246.5,217.5C 245.5,217.5 244.5,217.5 243.5,217.5C 243.5,216.5 243.5,215.5 243.5,214.5C 246.399,216.204 249.232,218.204 252,220.5C 252.167,220 252.333,219.5 252.5,219C 248.594,216.108 246.261,212.275 245.5,207.5C 244.167,207.5 242.833,207.5 241.5,207.5C 241.229,205.179 241.896,203.179 243.5,201.5C 242.167,198.5 240.833,195.5 239.5,192.5C 239.709,191.914 240.043,191.414 240.5,191C 235.865,187.802 234.531,183.802 236.5,179C 232.533,179.368 228.533,179.868 224.5,180.5C 229.465,178.708 234.465,177.041 239.5,175.5C 250.11,172.63 260.777,169.964 271.5,167.5 Z"/></g>
<g><path style="opacity:1" fill="#ff8b3d" d="M 316.5,173.5 C 315.534,176.125 314.534,176.125 313.5,173.5C 312.833,175.5 312.167,177.5 311.5,179.5C 310.216,176.718 308.383,174.385 306,172.5C 303.589,175.105 301.089,175.105 298.5,172.5C 297.833,173.833 297.167,175.167 296.5,176.5C 295.476,175.147 294.143,174.48 292.5,174.5C 292.657,175.873 292.49,177.207 292,178.5C 288.558,173.42 285.225,173.42 282,178.5C 281.508,177.451 281.674,176.451 282.5,175.5C 279.305,173.706 277.305,171.04 276.5,167.5C 274.833,167.5 273.167,167.5 271.5,167.5C 272.568,166.566 273.901,166.232 275.5,166.5C 277.942,166.119 278.609,166.786 277.5,168.5C 279.49,169.498 281.49,170.498 283.5,171.5C 284.571,169.675 283.904,168.508 281.5,168C 284.264,167.468 286.93,166.634 289.5,165.5C 290.192,166.025 290.692,166.692 291,167.5C 291.308,166.692 291.808,166.025 292.5,165.5C 292.833,166.833 293.167,168.167 293.5,169.5C 294.386,168.675 294.719,167.675 294.5,166.5C 295.552,166.649 296.552,166.483 297.5,166C 297.009,158.9 298.176,158.733 301,165.5C 301.483,164.552 301.649,163.552 301.5,162.5C 302.873,162.343 304.207,162.51 305.5,163C 304.289,163.893 304.289,164.726 305.5,165.5C 306.251,164.624 306.751,163.624 307,162.5C 308.11,164.037 309.61,164.703 311.5,164.5C 311.34,166.199 311.506,167.866 312,169.5C 312.368,168.09 313.201,167.09 314.5,166.5C 315.635,168.707 316.301,171.04 316.5,173.5 Z"/></g>
<g><path style="opacity:1" fill="#fff6f2" d="M 270.5,191.5 C 279.843,191.179 283.176,195.512 280.5,204.5C 282.196,209.568 284.196,214.568 286.5,219.5C 282.414,221.714 278.08,223.047 273.5,223.5C 272.994,217.793 272.161,212.126 271,206.5C 265.177,201.609 265.01,196.609 270.5,191.5 Z"/></g>
<g><path style="opacity:1" fill="#ff5d27" d="M 246.5,221.5 C 245.842,220.602 245.176,219.602 244.5,218.5C 243.833,219.5 243.167,220.5 242.5,221.5C 242.167,221 241.833,220.5 241.5,220C 242.287,217.901 242.62,215.734 242.5,213.5C 241.325,213.281 240.325,213.614 239.5,214.5C 240.506,215.396 240.506,216.062 239.5,216.5C 238.833,214.167 238.167,211.833 237.5,209.5C 236.269,210.651 236.269,211.817 237.5,213C 236.551,213.617 235.718,213.451 235,212.5C 234.605,210.821 234.772,209.155 235.5,207.5C 235.081,206.328 234.415,205.328 233.5,204.5C 235.126,203.01 236.792,201.51 238.5,200C 236.976,196.709 235.643,196.875 234.5,200.5C 234.331,198.883 233.997,197.216 233.5,195.5C 232.354,196.145 231.354,196.978 230.5,198C 231.711,198.893 231.711,199.726 230.5,200.5C 227.114,199.897 225.281,197.897 225,194.5C 223.612,195.736 222.446,197.069 221.5,198.5C 216.922,191.796 217.589,185.796 223.5,180.5C 223.833,180.5 224.167,180.5 224.5,180.5C 228.533,179.868 232.533,179.368 236.5,179C 234.531,183.802 235.865,187.802 240.5,191C 240.043,191.414 239.709,191.914 239.5,192.5C 240.833,195.5 242.167,198.5 243.5,201.5C 241.896,203.179 241.229,205.179 241.5,207.5C 242.833,207.5 244.167,207.5 245.5,207.5C 246.261,212.275 248.594,216.108 252.5,219C 252.333,219.5 252.167,220 252,220.5C 249.232,218.204 246.399,216.204 243.5,214.5C 243.5,215.5 243.5,216.5 243.5,217.5C 244.5,217.5 245.5,217.5 246.5,217.5C 246.5,218.833 246.5,220.167 246.5,221.5 Z"/></g>
<g><path style="opacity:1" fill="#ffa586" d="M 221.5,200.5 C 222.738,202.214 223.405,204.214 223.5,206.5C 221.926,204.898 221.259,202.898 221.5,200.5 Z"/></g>
<g><path style="opacity:1" fill="#ffc2ac" d="M 225.5,215.5 C 226.924,217.515 227.59,219.848 227.5,222.5C 226.076,220.485 225.41,218.152 225.5,215.5 Z"/></g>
<g><path style="opacity:1" fill="#ffb599" d="M 322.5,224.5 C 322.573,226.027 321.906,227.027 320.5,227.5C 320.427,225.973 321.094,224.973 322.5,224.5 Z"/></g>
<g><path style="opacity:1" fill="#ff4816" d="M 246.5,221.5 C 246.611,222.117 246.944,222.617 247.5,223C 243.958,226.325 243.958,229.825 247.5,233.5C 246.603,233.669 245.603,234.002 244.5,234.5C 247.715,235.448 248.048,236.781 245.5,238.5C 246.942,241.509 245.942,243.176 242.5,243.5C 235.807,237.809 230.807,230.809 227.5,222.5C 227.59,219.848 226.924,217.515 225.5,215.5C 224.833,212.5 224.167,209.5 223.5,206.5C 223.405,204.214 222.738,202.214 221.5,200.5C 221.5,199.833 221.5,199.167 221.5,198.5C 222.446,197.069 223.612,195.736 225,194.5C 225.281,197.897 227.114,199.897 230.5,200.5C 231.711,199.726 231.711,198.893 230.5,198C 231.354,196.978 232.354,196.145 233.5,195.5C 233.997,197.216 234.331,198.883 234.5,200.5C 235.643,196.875 236.976,196.709 238.5,200C 236.792,201.51 235.126,203.01 233.5,204.5C 234.415,205.328 235.081,206.328 235.5,207.5C 234.772,209.155 234.605,210.821 235,212.5C 235.718,213.451 236.551,213.617 237.5,213C 236.269,211.817 236.269,210.651 237.5,209.5C 238.167,211.833 238.833,214.167 239.5,216.5C 240.506,216.062 240.506,215.396 239.5,214.5C 240.325,213.614 241.325,213.281 242.5,213.5C 242.62,215.734 242.287,217.901 241.5,220C 241.833,220.5 242.167,221 242.5,221.5C 243.167,220.5 243.833,219.5 244.5,218.5C 245.176,219.602 245.842,220.602 246.5,221.5 Z"/></g>
<g><path style="opacity:1" fill="#ff5845" d="M 209.5,236.5 C 210.552,236.351 211.552,236.517 212.5,237C 215.847,241.011 219.18,245.011 222.5,249C 218.305,252.697 213.972,256.197 209.5,259.5C 205.167,255.833 201.167,251.833 197.5,247.5C 201.52,243.811 205.52,240.145 209.5,236.5 Z"/></g>
<g><path style="opacity:1" fill="#ff5e27" d="M 292.5,239.5 C 289.454,240.394 286.454,240.561 283.5,240C 286.159,243.523 285.659,246.023 282,247.5C 281.5,247 281,246.5 280.5,246C 281.939,245.009 282.939,243.676 283.5,242C 282.151,241.228 281.318,240.061 281,238.5C 280.1,239.77 278.934,240.77 277.5,241.5C 278.274,242.711 279.107,242.711 280,241.5C 280.612,243.237 279.946,244.237 278,244.5C 277.055,244.095 276.388,243.428 276,242.5C 275.692,243.308 275.192,243.975 274.5,244.5C 272.137,242.471 270.137,240.138 268.5,237.5C 266.942,242.694 265.942,242.694 265.5,237.5C 265.279,236.265 264.612,235.265 263.5,234.5C 263.833,234.167 264.167,233.833 264.5,233.5C 267.205,234.863 269.872,235.196 272.5,234.5C 274.584,237.146 276.251,236.979 277.5,234C 280.458,233.771 282.958,232.604 285,230.5C 286.188,231.563 286.688,232.897 286.5,234.5C 289.21,234.119 291.543,233.286 293.5,232C 294.357,232.689 295.023,233.522 295.5,234.5C 292.172,235.103 291.172,236.77 292.5,239.5 Z"/></g>
<g><path style="opacity:1" fill="#fe511e" d="M 246.5,221.5 C 248.167,221.5 249.833,221.5 251.5,221.5C 249.891,224.806 250.558,227.639 253.5,230C 252.692,230.308 252.025,230.808 251.5,231.5C 252.59,232.609 252.59,233.609 251.5,234.5C 249.262,231.567 248.262,231.901 248.5,235.5C 250.467,235.739 252.301,235.406 254,234.5C 254.617,235.449 254.451,236.282 253.5,237C 254.449,237.617 255.282,237.451 256,236.5C 256.667,237.167 257.333,237.833 258,238.5C 257.403,236.395 256.57,234.229 255.5,232C 256,231.833 256.5,231.667 257,231.5C 258.492,233.134 259.992,234.8 261.5,236.5C 261.291,237.086 260.957,237.586 260.5,238C 262.197,238.384 263.863,238.218 265.5,237.5C 265.942,242.694 266.942,242.694 268.5,237.5C 270.137,240.138 272.137,242.471 274.5,244.5C 275.192,243.975 275.692,243.308 276,242.5C 276.388,243.428 277.055,244.095 278,244.5C 279.946,244.237 280.612,243.237 280,241.5C 279.107,242.711 278.274,242.711 277.5,241.5C 278.934,240.77 280.1,239.77 281,238.5C 281.318,240.061 282.151,241.228 283.5,242C 282.939,243.676 281.939,245.009 280.5,246C 281,246.5 281.5,247 282,247.5C 285.659,246.023 286.159,243.523 283.5,240C 286.454,240.561 289.454,240.394 292.5,239.5C 293.398,240.158 294.398,240.824 295.5,241.5C 294.5,243.167 293.167,244.5 291.5,245.5C 293.769,246.005 295.103,247.338 295.5,249.5C 283.223,254.801 270.557,255.801 257.5,252.5C 251.948,250.232 246.948,247.232 242.5,243.5C 245.942,243.176 246.942,241.509 245.5,238.5C 248.048,236.781 247.715,235.448 244.5,234.5C 245.603,234.002 246.603,233.669 247.5,233.5C 243.958,229.825 243.958,226.325 247.5,223C 246.944,222.617 246.611,222.117 246.5,221.5 Z"/></g>
<g><path style="opacity:1" fill="#244581" d="M 131.5,258.5 C 132.552,258.351 133.552,258.517 134.5,259C 136.363,261.364 138.029,263.864 139.5,266.5C 137.466,269.369 134.966,271.702 132,273.5C 129.47,271.304 127.303,268.804 125.5,266C 127.32,263.348 129.32,260.848 131.5,258.5 Z"/></g>
<g><path style="opacity:1" fill="#3a568d" d="M 222.5,300.5 C 222.664,303.187 222.497,305.854 222,308.5C 221.796,305.203 220.963,302.203 219.5,299.5C 216.544,287.7 209.877,278.533 199.5,272C 195.546,270.689 191.879,268.856 188.5,266.5C 202.947,269.369 213.447,277.702 220,291.5C 221.131,294.445 221.964,297.445 222.5,300.5 Z"/></g>
<g><path style="opacity:1" fill="#3c588e" d="M 303.5,274.5 C 304.675,274.281 305.675,274.614 306.5,275.5C 288.69,282.644 276.69,295.311 270.5,313.5C 270.461,305.057 273.461,297.724 279.5,291.5C 286.243,283.818 294.243,278.151 303.5,274.5 Z"/></g>
<g><path style="opacity:1" fill="#dff1ff" d="M 251.5,303.5 C 252.552,303.351 253.552,303.517 254.5,304C 258.023,308.022 261.357,312.189 264.5,316.5C 260.167,320.5 255.833,324.5 251.5,328.5C 247.35,324.194 243.684,319.527 240.5,314.5C 244.161,310.839 247.827,307.173 251.5,303.5 Z"/></g>
<g><path style="opacity:1" fill="#95a6c3" d="M 219.5,299.5 C 220.963,302.203 221.796,305.203 222,308.5C 222.497,305.854 222.664,303.187 222.5,300.5C 223.477,303.287 223.81,306.287 223.5,309.5C 222.5,309.5 221.5,309.5 220.5,309.5C 220.384,306.14 220.051,302.807 219.5,299.5 Z"/></g>
<g><path style="opacity:1" fill="#deebff" d="M 358.5,346.5 C 359.263,347.268 360.263,347.768 361.5,348C 356.141,349.489 350.474,349.323 344.5,347.5C 342.246,349.973 340.08,349.973 338,347.5C 328.458,347.954 318.958,348.288 309.5,348.5C 307.902,346.027 306.402,346.027 305,348.5C 304,347.833 303,347.167 302,346.5C 295.29,347.775 288.623,347.775 282,346.5C 281.055,346.905 280.388,347.572 280,348.5C 275.35,347.407 270.684,346.407 266,345.5C 265.667,346.167 265.333,346.833 265,347.5C 262.967,347.132 260.8,347.132 258.5,347.5C 257.252,346.96 256.085,346.293 255,345.5C 252.888,347.922 250.888,347.922 249,345.5C 248.667,346.167 248.333,346.833 248,347.5C 244.472,346.657 240.806,346.657 237,347.5C 236.333,346.833 235.667,346.167 235,345.5C 213.658,345.824 192.824,345.824 172.5,345.5C 171.062,345.281 169.729,344.781 168.5,344C 169.737,343.768 170.737,343.268 171.5,342.5C 233.953,337.597 296.286,338.93 358.5,346.5 Z"/></g>
<g><path style="opacity:1" fill="#e5efff" d="M 171.5,342.5 C 170.737,343.268 169.737,343.768 168.5,344C 169.729,344.781 171.062,345.281 172.5,345.5C 192.824,345.824 213.658,345.824 235,345.5C 235.667,346.167 236.333,346.833 237,347.5C 240.806,346.657 244.472,346.657 248,347.5C 248.333,346.833 248.667,346.167 249,345.5C 250.888,347.922 252.888,347.922 255,345.5C 256.085,346.293 257.252,346.96 258.5,347.5C 260.8,347.132 262.967,347.132 265,347.5C 265.333,346.833 265.667,346.167 266,345.5C 270.684,346.407 275.35,347.407 280,348.5C 280.388,347.572 281.055,346.905 282,346.5C 288.623,347.775 295.29,347.775 302,346.5C 303,347.167 304,347.833 305,348.5C 306.402,346.027 307.902,346.027 309.5,348.5C 318.958,348.288 328.458,347.954 338,347.5C 340.08,349.973 342.246,349.973 344.5,347.5C 350.474,349.323 356.141,349.489 361.5,348C 360.263,347.768 359.263,347.268 358.5,346.5C 372.387,347.338 386.054,349.338 399.5,352.5C 399.918,353.222 400.584,353.722 401.5,354C 394.738,354.603 387.904,354.103 381,352.5C 375.608,354.786 370.442,354.786 365.5,352.5C 359.306,352.969 353.473,353.302 348,353.5C 342.573,351.027 337.073,351.027 331.5,353.5C 325.968,352.855 320.468,352.188 315,351.5C 310.358,351.268 305.525,351.601 300.5,352.5C 298.674,350.219 296.674,350.219 294.5,352.5C 289.365,351.437 284.199,351.437 279,352.5C 278,351.833 277,351.167 276,350.5C 262.875,351.398 249.542,351.731 236,351.5C 232.333,350.833 228.667,350.167 225,349.5C 224.667,350.167 224.333,350.833 224,351.5C 222.333,350.167 220.667,350.167 219,351.5C 215,350.833 211,350.167 207,349.5C 183.455,350.046 159.121,350.046 134,349.5C 132.319,349.392 131.152,348.725 130.5,347.5C 144.041,344.932 157.707,343.266 171.5,342.5 Z"/></g>
<g><path style="opacity:1" fill="#eaf2ff" d="M 130.5,347.5 C 131.152,348.725 132.319,349.392 134,349.5C 159.121,350.046 183.455,350.046 207,349.5C 211,350.167 215,350.833 219,351.5C 220.667,350.167 222.333,350.167 224,351.5C 224.333,350.833 224.667,350.167 225,349.5C 228.667,350.167 232.333,350.833 236,351.5C 249.542,351.731 262.875,351.398 276,350.5C 277,351.167 278,351.833 279,352.5C 284.199,351.437 289.365,351.437 294.5,352.5C 296.674,350.219 298.674,350.219 300.5,352.5C 305.525,351.601 310.358,351.268 315,351.5C 320.468,352.188 325.968,352.855 331.5,353.5C 337.073,351.027 342.573,351.027 348,353.5C 353.473,353.302 359.306,352.969 365.5,352.5C 370.442,354.786 375.608,354.786 381,352.5C 387.904,354.103 394.738,354.603 401.5,354C 400.584,353.722 399.918,353.222 399.5,352.5C 401.965,352.767 404.299,353.434 406.5,354.5C 409.15,355.247 411.816,356.247 414.5,357.5C 412.659,358.23 410.825,358.897 409,359.5C 398.811,358.547 387.977,358.547 376.5,359.5C 375.808,358.975 375.308,358.308 375,357.5C 363.59,357.375 352.257,357.708 341,358.5C 338.146,357.886 335.313,357.219 332.5,356.5C 330.246,358.973 328.08,358.973 326,356.5C 323.219,356.869 320.552,356.869 318,356.5C 316.667,357.167 315.333,357.833 314,358.5C 311.333,357.833 308.667,357.167 306,356.5C 292.654,356.999 279.654,357.332 267,357.5C 264.667,356.833 262.333,356.167 260,355.5C 254.919,355.581 249.752,355.581 244.5,355.5C 243.522,355.977 242.689,356.643 242,357.5C 237.576,355.303 233.243,354.97 229,356.5C 224.619,355.892 220.285,355.225 216,354.5C 212.833,354.716 209.833,355.383 207,356.5C 204.333,355.833 201.667,355.167 199,354.5C 187.655,355.193 175.988,355.526 164,355.5C 161.273,354.937 158.607,354.27 156,353.5C 155.667,354.167 155.333,354.833 155,355.5C 149.888,354.758 144.722,354.092 139.5,353.5C 137.878,355.854 136.378,355.854 135,353.5C 125.804,354.453 116.304,354.286 106.5,353C 108.491,352.626 110.158,351.793 111.5,350.5C 117.814,349.392 124.147,348.392 130.5,347.5 Z"/></g>
<g><path style="opacity:1" fill="#f0f6ff" d="M 111.5,350.5 C 110.158,351.793 108.491,352.626 106.5,353C 116.304,354.286 125.804,354.453 135,353.5C 136.378,355.854 137.878,355.854 139.5,353.5C 144.722,354.092 149.888,354.758 155,355.5C 155.333,354.833 155.667,354.167 156,353.5C 158.607,354.27 161.273,354.937 164,355.5C 175.988,355.526 187.655,355.193 199,354.5C 201.667,355.167 204.333,355.833 207,356.5C 209.833,355.383 212.833,354.716 216,354.5C 220.285,355.225 224.619,355.892 229,356.5C 233.243,354.97 237.576,355.303 242,357.5C 242.689,356.643 243.522,355.977 244.5,355.5C 249.752,355.581 254.919,355.581 260,355.5C 262.333,356.167 264.667,356.833 267,357.5C 279.654,357.332 292.654,356.999 306,356.5C 308.667,357.167 311.333,357.833 314,358.5C 315.333,357.833 316.667,357.167 318,356.5C 320.552,356.869 323.219,356.869 326,356.5C 328.08,358.973 330.246,358.973 332.5,356.5C 335.313,357.219 338.146,357.886 341,358.5C 352.257,357.708 363.59,357.375 375,357.5C 375.308,358.308 375.808,358.975 376.5,359.5C 387.977,358.547 398.811,358.547 409,359.5C 410.825,358.897 412.659,358.23 414.5,357.5C 411.816,356.247 409.15,355.247 406.5,354.5C 420.363,356.57 433.697,360.237 446.5,365.5C 445.726,366.147 444.726,366.48 443.5,366.5C 438.795,365.964 434.128,365.297 429.5,364.5C 428.5,365.167 427.5,365.833 426.5,366.5C 423.813,364.988 421.146,364.321 418.5,364.5C 417.784,365.311 416.95,365.978 416,366.5C 411.951,365.898 407.951,365.231 404,364.5C 401.802,366.375 399.969,366.375 398.5,364.5C 390.838,364.169 383.338,364.502 376,365.5C 374.667,364.833 373.333,364.167 372,363.5C 371.667,364.167 371.333,364.833 371,365.5C 366.599,364.964 361.932,364.298 357,363.5C 354.446,365.924 351.946,365.924 349.5,363.5C 347.596,364.26 345.596,364.26 343.5,363.5C 342.006,363.709 340.839,364.376 340,365.5C 335.197,364.665 330.197,363.665 325,362.5C 323.667,363.167 322.333,363.833 321,364.5C 319.667,363.167 318.333,363.167 317,364.5C 314.897,362.084 312.897,362.084 311,364.5C 305.872,364.088 300.872,364.088 296,364.5C 295,363.833 294,363.167 293,362.5C 286.852,362.421 281.018,362.754 275.5,363.5C 272.5,362.833 269.5,362.167 266.5,361.5C 265.784,362.311 264.95,362.978 264,363.5C 261.406,363.239 258.74,363.239 256,363.5C 254.559,362.74 253.059,362.074 251.5,361.5C 239.707,361.398 228.207,361.732 217,362.5C 214.333,361.833 211.667,361.167 209,360.5C 208.261,361.574 207.261,362.241 206,362.5C 201.809,361.468 197.809,360.801 194,360.5C 193.311,361.357 192.478,362.023 191.5,362.5C 186.864,361.234 182.697,360.568 179,360.5C 177.739,360.759 176.739,361.426 176,362.5C 174.196,360.581 172.196,360.248 170,361.5C 167.273,360.937 164.607,360.27 162,359.5C 161.261,360.574 160.261,361.241 159,361.5C 156.284,361.117 153.451,361.117 150.5,361.5C 149.522,361.023 148.689,360.357 148,359.5C 147.667,360.167 147.333,360.833 147,361.5C 138.261,360.225 129.761,359.559 121.5,359.5C 120.808,360.025 120.308,360.692 120,361.5C 119.311,360.643 118.478,359.977 117.5,359.5C 110.609,359.756 103.775,360.09 97,360.5C 94.5393,359.782 92.0393,359.115 89.5,358.5C 87.3316,360.455 84.9983,361.121 82.5,360.5C 81.537,360.03 81.537,359.363 82.5,358.5C 91.9683,355.522 101.635,352.855 111.5,350.5 Z"/></g>
<g><path style="opacity:1" fill="#f6faff" d="M 82.5,358.5 C 81.537,359.363 81.537,360.03 82.5,360.5C 84.9983,361.121 87.3316,360.455 89.5,358.5C 92.0393,359.115 94.5393,359.782 97,360.5C 103.775,360.09 110.609,359.756 117.5,359.5C 118.478,359.977 119.311,360.643 120,361.5C 120.308,360.692 120.808,360.025 121.5,359.5C 129.761,359.559 138.261,360.225 147,361.5C 147.333,360.833 147.667,360.167 148,359.5C 148.689,360.357 149.522,361.023 150.5,361.5C 153.451,361.117 156.284,361.117 159,361.5C 160.261,361.241 161.261,360.574 162,359.5C 164.607,360.27 167.273,360.937 170,361.5C 172.196,360.248 174.196,360.581 176,362.5C 176.739,361.426 177.739,360.759 179,360.5C 182.697,360.568 186.864,361.234 191.5,362.5C 192.478,362.023 193.311,361.357 194,360.5C 197.809,360.801 201.809,361.468 206,362.5C 207.261,362.241 208.261,361.574 209,360.5C 211.667,361.167 214.333,361.833 217,362.5C 228.207,361.732 239.707,361.398 251.5,361.5C 253.059,362.074 254.559,362.74 256,363.5C 258.74,363.239 261.406,363.239 264,363.5C 264.95,362.978 265.784,362.311 266.5,361.5C 269.5,362.167 272.5,362.833 275.5,363.5C 281.018,362.754 286.852,362.421 293,362.5C 294,363.167 295,363.833 296,364.5C 300.872,364.088 305.872,364.088 311,364.5C 312.897,362.084 314.897,362.084 317,364.5C 318.333,363.167 319.667,363.167 321,364.5C 322.333,363.833 323.667,363.167 325,362.5C 330.197,363.665 335.197,364.665 340,365.5C 340.839,364.376 342.006,363.709 343.5,363.5C 345.596,364.26 347.596,364.26 349.5,363.5C 351.946,365.924 354.446,365.924 357,363.5C 361.932,364.298 366.599,364.964 371,365.5C 371.333,364.833 371.667,364.167 372,363.5C 373.333,364.167 374.667,364.833 376,365.5C 383.338,364.502 390.838,364.169 398.5,364.5C 399.969,366.375 401.802,366.375 404,364.5C 407.951,365.231 411.951,365.898 416,366.5C 416.95,365.978 417.784,365.311 418.5,364.5C 421.146,364.321 423.813,364.988 426.5,366.5C 427.5,365.833 428.5,365.167 429.5,364.5C 434.128,365.297 438.795,365.964 443.5,366.5C 444.726,366.48 445.726,366.147 446.5,365.5C 453.512,367.505 460.178,370.339 466.5,374C 463.513,375.474 460.68,374.974 458,372.5C 457.667,373.5 457.333,374.5 457,375.5C 454.539,374.782 452.039,374.115 449.5,373.5C 448.5,374.167 447.5,374.833 446.5,375.5C 445.5,374.833 444.5,374.167 443.5,373.5C 440.443,373.776 437.443,373.776 434.5,373.5C 433.833,374.167 433.167,374.833 432.5,375.5C 430.267,375.136 428.434,374.136 427,372.5C 426.692,373.308 426.192,373.975 425.5,374.5C 422.628,374.373 419.628,373.706 416.5,372.5C 415.522,372.977 414.689,373.643 414,374.5C 410.338,374.249 406.504,373.583 402.5,372.5C 401.784,373.311 400.95,373.978 400,374.5C 397.146,373.886 394.313,373.219 391.5,372.5C 389.135,373.289 386.801,372.956 384.5,371.5C 383.833,372.167 383.167,372.833 382.5,373.5C 379.554,373.981 376.721,373.314 374,371.5C 372.324,372.061 370.991,373.061 370,374.5C 368.042,373.048 366.042,372.715 364,373.5C 361.204,372.789 358.37,372.122 355.5,371.5C 353.24,373.36 350.74,373.36 348,371.5C 346.887,372.711 345.72,372.711 344.5,371.5C 343.522,371.977 342.689,372.643 342,373.5C 340.075,370.71 338.075,370.377 336,372.5C 333.758,372.516 331.424,372.183 329,371.5C 326.925,373.623 324.925,373.29 323,370.5C 322.612,371.428 321.945,372.095 321,372.5C 318.011,372.65 315.011,371.984 312,370.5C 311.311,371.357 310.478,372.023 309.5,372.5C 304.353,370.192 299.686,370.192 295.5,372.5C 293.895,371.57 292.395,371.57 291,372.5C 288.802,370.625 286.969,370.625 285.5,372.5C 283.608,369.956 281.775,369.956 280,372.5C 276.989,371.016 273.989,370.35 271,370.5C 270.055,370.905 269.388,371.572 269,372.5C 266.43,369.108 263.596,368.775 260.5,371.5C 258.404,370.74 256.404,370.74 254.5,371.5C 252.18,369.206 250.013,369.206 248,371.5C 246.527,371.097 245.194,370.43 244,369.5C 242.542,370.747 241.042,370.747 239.5,369.5C 237.837,371.801 236.003,371.801 234,369.5C 233.667,370.167 233.333,370.833 233,371.5C 230.279,369.686 227.446,369.019 224.5,369.5C 222.758,371.973 220.925,371.973 219,369.5C 216.768,370.187 214.602,370.521 212.5,370.5C 209.863,368.542 207.529,368.542 205.5,370.5C 202.59,371.009 199.756,370.342 197,368.5C 195.396,369.649 193.73,369.649 192,368.5C 188.951,370.575 185.618,370.575 182,368.5C 180.887,369.711 179.72,369.711 178.5,368.5C 177.784,369.311 176.95,369.978 176,370.5C 172.881,368.752 169.715,368.085 166.5,368.5C 165.833,369.167 165.167,369.833 164.5,370.5C 162.549,367.4 160.382,367.066 158,369.5C 156.079,368.81 154.245,368.476 152.5,368.5C 150.674,370.781 148.674,370.781 146.5,368.5C 142.526,369.422 138.692,369.088 135,367.5C 133.451,370.003 131.784,370.003 130,367.5C 128.316,369.459 126.316,369.459 124,367.5C 122.75,368.573 121.416,368.573 120,367.5C 118.394,369.984 116.894,369.984 115.5,367.5C 112.593,368.247 109.76,368.581 107,368.5C 105.667,367.833 104.333,367.167 103,366.5C 101.991,367.658 100.658,368.325 99,368.5C 96.7242,367.85 94.5575,367.85 92.5,368.5C 89.9053,366.567 87.572,366.567 85.5,368.5C 83.4121,367.821 81.4121,367.488 79.5,367.5C 78.8333,368.167 78.1667,368.833 77.5,369.5C 75.8685,368.703 74.3685,367.703 73,366.5C 72.0546,366.905 71.3879,367.572 71,368.5C 68.1997,367.875 65.3664,367.208 62.5,366.5C 68.7494,362.706 75.416,360.039 82.5,358.5 Z"/></g>
</svg>
