<?xml version="1.0" encoding="UTF-8"?>
<!DOCTYPE svg PUBLIC "-//W3C//DTD SVG 1.1//EN" "http://www.w3.org/Graphics/SVG/1.1/DTD/svg11.dtd">
<svg xmlns="http://www.w3.org/2000/svg" version="1.1" width="512px" height="512px" style="shape-rendering:geometricPrecision; text-rendering:geometricPrecision; image-rendering:optimizeQuality; fill-rule:evenodd; clip-rule:evenodd" xmlns:xlink="http://www.w3.org/1999/xlink">
<g><path style="opacity:1" fill="#fefefe" d="M -0.5,-0.5 C 170.167,-0.5 340.833,-0.5 511.5,-0.5C 511.5,170.167 511.5,340.833 511.5,511.5C 340.833,511.5 170.167,511.5 -0.5,511.5C -0.5,340.833 -0.5,170.167 -0.5,-0.5 Z"/></g>
<g><path style="opacity:1" fill="#808fa1" d="M 190.5,109.5 C 201.326,108.341 212.326,108.174 223.5,109C 225.02,111.552 224.687,113.718 222.5,115.5C 222.5,113.5 222.5,111.5 222.5,109.5C 211.833,109.5 201.167,109.5 190.5,109.5 Z"/></g>
<g><path style="opacity:1" fill="#10294c" d="M 190.5,109.5 C 201.167,109.5 211.833,109.5 222.5,109.5C 222.5,111.5 222.5,113.5 222.5,115.5C 221.197,117.142 219.864,118.809 218.5,120.5C 214.675,121.981 210.675,122.815 206.5,123C 205.29,124.039 204.29,125.206 203.5,126.5C 200.14,126.384 196.807,126.051 193.5,125.5C 193.247,127.827 193.914,129.827 195.5,131.5C 194.311,132.429 192.978,132.762 191.5,132.5C 187.077,128.602 184.743,123.602 184.5,117.5C 184.124,112.879 186.124,110.212 190.5,109.5 Z"/></g>
<g><path style="opacity:1" fill="#152b4d" d="M 338.5,132.5 C 333.445,134.179 333.445,135.512 338.5,136.5C 341.702,137.047 344.702,138.047 347.5,139.5C 348.209,140.404 349.209,140.737 350.5,140.5C 350.483,142.565 350.15,144.565 349.5,146.5C 348.29,146.932 347.29,147.599 346.5,148.5C 344.218,149.39 341.885,149.556 339.5,149C 337.266,146.937 335.266,144.771 333.5,142.5C 332.541,140.455 331.875,138.289 331.5,136C 332.806,132.583 333.806,129.083 334.5,125.5C 332.708,125.366 331.042,125.699 329.5,126.5C 325.939,124.952 322.606,122.952 319.5,120.5C 318.52,117.914 318.187,115.247 318.5,112.5C 328.042,108.673 336.542,110.34 344,117.5C 345.91,123.985 344.077,128.985 338.5,132.5 Z"/></g>
<g><path style="opacity:1" fill="#a0acba" d="M 222.5,115.5 C 222.631,118.367 221.297,120.033 218.5,120.5C 219.864,118.809 221.197,117.142 222.5,115.5 Z"/></g>
<g><path style="opacity:1" fill="#bc9aa0" d="M 318.5,112.5 C 318.187,115.247 318.52,117.914 319.5,120.5C 322.606,122.952 325.939,124.952 329.5,126.5C 325.758,127.593 322.425,126.593 319.5,123.5C 317.872,124.535 316.205,124.535 314.5,123.5C 313.359,120.807 314.192,120.14 317,121.5C 317.181,118.305 317.681,115.305 318.5,112.5 Z"/></g>
<g><path style="opacity:1" fill="#c3a6a9" d="M 218.5,120.5 C 217.412,122 216.079,123.333 214.5,124.5C 215.127,125.417 215.461,126.417 215.5,127.5C 213.513,126.041 211.346,124.708 209,123.5C 207.269,124.741 205.436,125.741 203.5,126.5C 204.29,125.206 205.29,124.039 206.5,123C 210.675,122.815 214.675,121.981 218.5,120.5 Z"/></g>
<g><path style="opacity:1" fill="#fbbcb3" d="M 314.5,123.5 C 316.205,124.535 317.872,124.535 319.5,123.5C 322.425,126.593 325.758,127.593 329.5,126.5C 331.042,125.699 332.708,125.366 334.5,125.5C 333.806,129.083 332.806,132.583 331.5,136C 331.875,138.289 332.541,140.455 333.5,142.5C 331.139,143.435 328.972,144.768 327,146.5C 326.824,150.688 326.324,154.688 325.5,158.5C 325.829,151.759 325.329,145.092 324,138.5C 318.154,135.662 314.154,131.329 312,125.5C 312.995,124.934 313.828,124.267 314.5,123.5 Z"/></g>
<g><path style="opacity:1" fill="#f8c1b6" d="M 215.5,127.5 C 215.5,128.833 215.5,130.167 215.5,131.5C 211.745,133.904 207.745,135.904 203.5,137.5C 203.768,139.099 203.434,140.432 202.5,141.5C 202.5,139.833 202.5,138.167 202.5,136.5C 200.599,136.567 198.766,136.233 197,135.5C 195.405,136.356 194.572,137.689 194.5,139.5C 194.167,139.5 193.833,139.5 193.5,139.5C 193.815,136.789 193.148,134.456 191.5,132.5C 192.978,132.762 194.311,132.429 195.5,131.5C 193.914,129.827 193.247,127.827 193.5,125.5C 196.807,126.051 200.14,126.384 203.5,126.5C 205.436,125.741 207.269,124.741 209,123.5C 211.346,124.708 213.513,126.041 215.5,127.5 Z"/></g>
<g><path style="opacity:1" fill="#738397" d="M 338.5,132.5 C 337.167,133.833 337.167,135.167 338.5,136.5C 333.445,135.512 333.445,134.179 338.5,132.5 Z"/></g>
<g><path style="opacity:1" fill="#f3a099" d="M 202.5,141.5 C 202.167,141.5 201.833,141.5 201.5,141.5C 199.299,140.434 196.965,139.767 194.5,139.5C 194.572,137.689 195.405,136.356 197,135.5C 198.766,136.233 200.599,136.567 202.5,136.5C 202.5,138.167 202.5,139.833 202.5,141.5 Z"/></g>
<g><path style="opacity:1" fill="#0a8aeb" d="M 252.5,209.5 C 252.411,213.3 253.078,216.966 254.5,220.5C 254.058,221.739 253.391,222.739 252.5,223.5C 247.821,223.666 243.155,223.499 238.5,223C 234.673,221.254 231.007,219.254 227.5,217C 223.848,216.501 220.182,216.335 216.5,216.5C 213.615,216.194 210.948,216.527 208.5,217.5C 206.421,217.029 204.421,216.363 202.5,215.5C 200.362,214.025 198.029,213.025 195.5,212.5C 185.464,214.294 175.797,213.294 166.5,209.5C 161.472,208.737 156.972,206.737 153,203.5C 151,199.167 151,194.833 153,190.5C 155.95,185.882 159.284,181.548 163,177.5C 167.61,164.463 175.11,153.296 185.5,144C 186.745,143.209 188.078,142.709 189.5,142.5C 190.695,142.322 191.862,141.989 193,141.5C 194.011,141.892 194.511,142.559 194.5,143.5C 195.167,142.833 195.833,142.167 196.5,141.5C 197.052,143.003 197.052,144.669 196.5,146.5C 198.103,146.312 199.437,146.812 200.5,148C 199.483,149.049 199.316,150.216 200,151.5C 201.232,153.827 202.732,154.994 204.5,155C 202.332,157.433 202.998,159.433 206.5,161C 205.167,161.333 203.833,161.667 202.5,162C 203.022,162.561 203.355,163.228 203.5,164C 201.543,166.501 200.877,169.167 201.5,172C 202.624,172.249 203.624,172.749 204.5,173.5C 203.289,174.72 203.289,175.887 204.5,177C 202.993,177.837 202.493,179.004 203,180.5C 204.314,179.687 205.481,178.687 206.5,177.5C 209.427,180.287 211.427,183.621 212.5,187.5C 213.675,187.281 214.675,187.614 215.5,188.5C 216.588,191.234 218.422,193.234 221,194.5C 223.044,193.228 224.878,193.561 226.5,195.5C 227.167,194.833 227.833,194.167 228.5,193.5C 230.415,194.709 232.248,196.042 234,197.5C 234.772,197.355 235.439,197.022 236,196.5C 236.284,198.886 237.284,199.552 239,198.5C 240.506,200.174 242.339,201.174 244.5,201.5C 244.5,202.833 244.5,204.167 244.5,205.5C 245.5,205.5 246.5,205.5 247.5,205.5C 247.032,209.034 248.032,212.034 250.5,214.5C 250.833,214.167 251.167,213.833 251.5,213.5C 249.775,211.043 249.275,208.377 250,205.5C 250.608,207.066 251.442,208.4 252.5,209.5 Z"/></g>
<g><path style="opacity:1" fill="#fe6f35" d="M 333.5,142.5 C 335.266,144.771 337.266,146.937 339.5,149C 341.885,149.556 344.218,149.39 346.5,148.5C 366.549,166.959 375.882,189.959 374.5,217.5C 367.223,218.15 360.223,217.15 353.5,214.5C 352.817,214.863 352.15,215.196 351.5,215.5C 350.335,212.41 348.002,211.076 344.5,211.5C 343.551,193.078 339.551,175.412 332.5,158.5C 332.275,162.832 331.942,167.165 331.5,171.5C 333.583,174.015 335.249,176.848 336.5,180C 335.248,182.196 335.581,184.196 337.5,186C 336.76,187.785 336.093,189.618 335.5,191.5C 335.189,196.807 335.689,202.14 337,207.5C 339.884,210.046 343.051,212.213 346.5,214C 345.944,214.383 345.611,214.883 345.5,215.5C 345.167,215.5 344.833,215.5 344.5,215.5C 340.418,215.656 336.418,215.156 332.5,214C 329.057,211.688 325.391,209.854 321.5,208.5C 317.036,207.19 314.703,204.19 314.5,199.5C 318.207,198.276 320.373,195.609 321,191.5C 323.469,182.991 324.969,174.324 325.5,165.5C 324.5,165.5 323.5,165.5 322.5,165.5C 324.075,163.453 325.075,161.119 325.5,158.5C 326.324,154.688 326.824,150.688 327,146.5C 328.972,144.768 331.139,143.435 333.5,142.5 Z"/></g>
<g><path style="opacity:1" fill="#9ba6b5" d="M 347.5,139.5 C 348.833,139.5 350.167,139.5 351.5,139.5C 351.662,141.527 351.495,143.527 351,145.5C 350.617,146.056 350.117,146.389 349.5,146.5C 350.15,144.565 350.483,142.565 350.5,140.5C 349.209,140.737 348.209,140.404 347.5,139.5 Z"/></g>
<g><path style="opacity:1" fill="#ee5f2d" d="M 322.5,165.5 C 323.5,165.5 324.5,165.5 325.5,165.5C 324.969,174.324 323.469,182.991 321,191.5C 320.373,195.609 318.207,198.276 314.5,199.5C 312.5,197.833 310.5,196.167 308.5,194.5C 306.287,191.408 304.621,188.074 303.5,184.5C 310.973,179.272 317.306,172.939 322.5,165.5 Z"/></g>
<g><path style="opacity:1" fill="#017eec" d="M 186.5,182.5 C 185.521,181.235 184.521,179.901 183.5,178.5C 182.289,179.274 182.289,180.107 183.5,181C 181.866,181.494 180.199,181.66 178.5,181.5C 178.737,182.791 178.404,183.791 177.5,184.5C 177.423,183.25 176.756,182.417 175.5,182C 179.119,177.926 182.619,173.759 186,169.5C 186.54,171.135 186.04,172.468 184.5,173.5C 184.846,174.696 185.346,174.696 186,173.5C 186.498,176.482 186.665,179.482 186.5,182.5 Z"/></g>
<g><path style="opacity:1" fill="#a8d1f4" d="M 228.5,185.5 C 235.23,185.226 241.897,185.726 248.5,187C 249.22,189.491 249.887,191.991 250.5,194.5C 250.5,195.833 250.5,197.167 250.5,198.5C 249.24,195.162 248.24,191.662 247.5,188C 240.944,187.766 234.611,186.933 228.5,185.5 Z"/></g>
<g><path style="opacity:1" fill="#1b92ed" d="M 193.5,139.5 C 193.833,139.5 194.167,139.5 194.5,139.5C 196.965,139.767 199.299,140.434 201.5,141.5C 204.416,148.136 206.583,155.136 208,162.5C 211.039,166.945 213.706,171.612 216,176.5C 218.674,181.688 222.841,184.688 228.5,185.5C 234.611,186.933 240.944,187.766 247.5,188C 248.24,191.662 249.24,195.162 250.5,198.5C 251.048,200.626 251.715,202.626 252.5,204.5C 252.5,206.167 252.5,207.833 252.5,209.5C 251.442,208.4 250.608,207.066 250,205.5C 249.275,208.377 249.775,211.043 251.5,213.5C 251.167,213.833 250.833,214.167 250.5,214.5C 248.032,212.034 247.032,209.034 247.5,205.5C 246.5,205.5 245.5,205.5 244.5,205.5C 244.5,204.167 244.5,202.833 244.5,201.5C 242.339,201.174 240.506,200.174 239,198.5C 237.284,199.552 236.284,198.886 236,196.5C 235.439,197.022 234.772,197.355 234,197.5C 232.248,196.042 230.415,194.709 228.5,193.5C 227.833,194.167 227.167,194.833 226.5,195.5C 224.878,193.561 223.044,193.228 221,194.5C 218.422,193.234 216.588,191.234 215.5,188.5C 214.675,187.614 213.675,187.281 212.5,187.5C 211.427,183.621 209.427,180.287 206.5,177.5C 205.481,178.687 204.314,179.687 203,180.5C 202.493,179.004 202.993,177.837 204.5,177C 203.289,175.887 203.289,174.72 204.5,173.5C 203.624,172.749 202.624,172.249 201.5,172C 200.877,169.167 201.543,166.501 203.5,164C 203.355,163.228 203.022,162.561 202.5,162C 203.833,161.667 205.167,161.333 206.5,161C 202.998,159.433 202.332,157.433 204.5,155C 202.732,154.994 201.232,153.827 200,151.5C 199.316,150.216 199.483,149.049 200.5,148C 199.437,146.812 198.103,146.312 196.5,146.5C 197.052,144.669 197.052,143.003 196.5,141.5C 195.833,142.167 195.167,142.833 194.5,143.5C 194.511,142.559 194.011,141.892 193,141.5C 191.862,141.989 190.695,142.322 189.5,142.5C 190.262,140.738 191.596,139.738 193.5,139.5 Z"/></g>
<g><path style="opacity:1" fill="#0070ed" d="M 186.5,182.5 C 186.66,188.968 187.994,195.135 190.5,201C 189.74,204.897 187.74,206.063 184.5,204.5C 184.657,203.127 184.49,201.793 184,200.5C 183.221,201.728 182.221,202.728 181,203.5C 179.56,202.852 178.06,202.519 176.5,202.5C 176.662,200.473 176.495,198.473 176,196.5C 174.119,199.351 173.285,199.018 173.5,195.5C 173.717,192.512 174.717,189.845 176.5,187.5C 175.833,187.167 175.167,186.833 174.5,186.5C 175.005,185.081 176.005,184.415 177.5,184.5C 178.404,183.791 178.737,182.791 178.5,181.5C 180.199,181.66 181.866,181.494 183.5,181C 182.289,180.107 182.289,179.274 183.5,178.5C 184.521,179.901 185.521,181.235 186.5,182.5 Z"/></g>
<g><path style="opacity:1" fill="#f9b4ad" d="M 303.5,184.5 C 304.621,188.074 306.287,191.408 308.5,194.5C 301.736,194.64 295.07,195.474 288.5,197C 287.692,197.308 287.025,197.808 286.5,198.5C 288.124,199.869 288.624,201.536 288,203.5C 280.279,208.932 272.779,208.765 265.5,203C 260.974,202.151 256.64,202.651 252.5,204.5C 251.715,202.626 251.048,200.626 250.5,198.5C 250.5,197.167 250.5,195.833 250.5,194.5C 258.61,195.081 266.277,193.581 273.5,190C 284.036,190.391 294.036,188.557 303.5,184.5 Z"/></g>
<g><path style="opacity:1" fill="#fe5923" d="M 351.5,215.5 C 349.5,215.5 347.5,215.5 345.5,215.5C 345.611,214.883 345.944,214.383 346.5,214C 343.051,212.213 339.884,210.046 337,207.5C 335.689,202.14 335.189,196.807 335.5,191.5C 336.093,189.618 336.76,187.785 337.5,186C 335.581,184.196 335.248,182.196 336.5,180C 335.249,176.848 333.583,174.015 331.5,171.5C 331.942,167.165 332.275,162.832 332.5,158.5C 339.551,175.412 343.551,193.078 344.5,211.5C 348.002,211.076 350.335,212.41 351.5,215.5 Z"/></g>
<g><path style="opacity:1" fill="#1b488a" d="M 166.5,209.5 C 175.797,213.294 185.464,214.294 195.5,212.5C 198.029,213.025 200.362,214.025 202.5,215.5C 201.587,217.086 201.587,218.586 202.5,220C 200.876,221.117 199.876,222.617 199.5,224.5C 203.579,230.535 204.245,236.868 201.5,243.5C 202.025,244.192 202.692,244.692 203.5,245C 203.087,248.177 201.587,250.677 199,252.5C 198.316,253.784 198.483,254.951 199.5,256C 198.551,256.617 197.718,256.451 197,255.5C 197.167,258 197.333,260.5 197.5,263C 196.733,264.47 196.067,265.97 195.5,267.5C 195.881,268.931 196.881,269.764 198.5,270C 196.575,272.465 196.575,275.132 198.5,278C 193.233,284.098 190.066,291.265 189,299.5C 188,300.833 187,302.167 186,303.5C 185.667,302.5 185.333,301.5 185,300.5C 184.383,303.035 184.883,305.368 186.5,307.5C 184.892,311.216 182.892,314.716 180.5,318C 181.711,319.113 181.711,320.28 180.5,321.5C 181.716,322.096 183.049,322.263 184.5,322C 183.289,323.113 183.289,324.28 184.5,325.5C 182.345,325.838 180.011,325.838 177.5,325.5C 175.801,331.032 174.467,336.699 173.5,342.5C 172.133,345.536 170.8,348.536 169.5,351.5C 165.5,351.5 161.5,351.5 157.5,351.5C 154.833,351.5 152.167,351.5 149.5,351.5C 149.5,346.167 149.5,340.833 149.5,335.5C 150.407,333.343 151.073,331.01 151.5,328.5C 152.079,325.669 153.412,323.336 155.5,321.5C 158.449,319.627 160.449,316.961 161.5,313.5C 161.433,312.041 161.766,310.708 162.5,309.5C 163.225,303.246 164.225,296.913 165.5,290.5C 166.018,284.436 168.184,279.102 172,274.5C 172.827,266.912 172.327,259.412 170.5,252C 168.625,247.995 167.291,243.828 166.5,239.5C 165.629,231.2 165.295,222.867 165.5,214.5C 166.301,212.958 166.634,211.292 166.5,209.5 Z"/></g>
<g><path style="opacity:1" fill="#1f4889" d="M 321.5,208.5 C 325.391,209.854 329.057,211.688 332.5,214C 336.418,215.156 340.418,215.656 344.5,215.5C 346.948,216.473 349.615,216.806 352.5,216.5C 352.516,222.905 351.016,228.905 348,234.5C 344.667,236.5 342,239.167 340,242.5C 339.444,244.885 339.61,247.218 340.5,249.5C 336.726,250.938 334.393,253.605 333.5,257.5C 331.621,258.341 329.621,258.675 327.5,258.5C 323.979,257.693 320.312,257.026 316.5,256.5C 316.179,251.305 316.513,246.305 317.5,241.5C 318.665,236.367 319.332,231.034 319.5,225.5C 320.896,219.936 321.563,214.269 321.5,208.5 Z"/></g>
<g><path style="opacity:1" fill="#83c3f5" d="M 252.5,209.5 C 254.502,213.833 255.502,218.5 255.5,223.5C 254.5,223.5 253.5,223.5 252.5,223.5C 253.391,222.739 254.058,221.739 254.5,220.5C 253.078,216.966 252.411,213.3 252.5,209.5 Z"/></g>
<g><path style="opacity:1" fill="#3a7dbe" d="M 216.5,216.5 C 214.393,217.468 212.059,217.802 209.5,217.5C 210.295,221.785 210.628,226.119 210.5,230.5C 209.842,229.602 209.176,228.602 208.5,227.5C 207.657,229.231 207.657,231.065 208.5,233C 207.588,236.816 206.754,240.649 206,244.5C 205.744,241.443 205.244,238.443 204.5,235.5C 204.833,234.833 205.167,234.167 205.5,233.5C 201.582,229.72 201.582,225.886 205.5,222C 203.838,220.06 204.171,219.394 206.5,220C 207.191,221.067 207.691,222.234 208,223.5C 208.495,221.527 208.662,219.527 208.5,217.5C 210.948,216.527 213.615,216.194 216.5,216.5 Z"/></g>
<g><path style="opacity:1" fill="#a9b8d2" d="M 319.5,225.5 C 319.332,231.034 318.665,236.367 317.5,241.5C 317.334,236.821 317.501,232.155 318,227.5C 318.278,226.584 318.778,225.918 319.5,225.5 Z"/></g>
<g><path style="opacity:1" fill="#e2e4e7" d="M 138.5,211.5 C 141.642,211.799 143.809,213.466 145,216.5C 146.041,219.636 145.207,222.136 142.5,224C 136.369,225.928 130.536,228.428 125,231.5C 123.175,235.775 123.008,240.108 124.5,244.5C 123.5,244.5 122.5,244.5 121.5,244.5C 118.726,230.846 124.392,223.679 138.5,223C 141.875,221.971 143.042,219.804 142,216.5C 139.828,215.491 138.662,213.824 138.5,211.5 Z"/></g>
<g><path style="opacity:1" fill="#f7b4ad" d="M 374.5,217.5 C 371.772,218.205 368.939,218.872 366,219.5C 362.667,226.167 359.333,232.833 356,239.5C 355.582,244.535 355.582,249.535 356,254.5C 355.626,255.416 355.126,256.25 354.5,257C 352.19,257.497 349.857,257.663 347.5,257.5C 343.732,257.719 341.398,256.053 340.5,252.5C 340.5,251.5 340.5,250.5 340.5,249.5C 339.61,247.218 339.444,244.885 340,242.5C 342,239.167 344.667,236.5 348,234.5C 351.016,228.905 352.516,222.905 352.5,216.5C 349.615,216.806 346.948,216.473 344.5,215.5C 344.833,215.5 345.167,215.5 345.5,215.5C 347.5,215.5 349.5,215.5 351.5,215.5C 352.15,215.196 352.817,214.863 353.5,214.5C 360.223,217.15 367.223,218.15 374.5,217.5 Z"/></g>
<g><path style="opacity:1" fill="#a9bad3" d="M 165.5,214.5 C 165.295,222.867 165.629,231.2 166.5,239.5C 165.732,238.737 165.232,237.737 165,236.5C 164.178,228.988 164.345,221.655 165.5,214.5 Z"/></g>
<g><path style="opacity:1" fill="#27d18f" d="M 67.5,239.5 C 74.3407,240.016 76.0074,243.182 72.5,249C 64.4079,249.09 62.7412,245.923 67.5,239.5 Z"/></g>
<g><path style="opacity:1" fill="#8fa9c8" d="M 210.5,233.5 C 212.387,238.872 213.387,244.539 213.5,250.5C 211.939,245.06 210.939,239.394 210.5,233.5 Z"/></g>
<g><path style="opacity:1" fill="#12928c" d="M 340.5,249.5 C 340.5,250.5 340.5,251.5 340.5,252.5C 337.231,253.56 335.565,255.893 335.5,259.5C 334.833,258.833 334.167,258.167 333.5,257.5C 334.393,253.605 336.726,250.938 340.5,249.5 Z"/></g>
<g><path style="opacity:1" fill="#85a2c3" d="M 213.5,250.5 C 214.719,255.02 215.885,259.687 217,264.5C 217.828,280.339 217.661,296.005 216.5,311.5C 217.219,291.052 216.219,270.718 213.5,250.5 Z"/></g>
<g><path style="opacity:1" fill="#284d8b" d="M 340.5,252.5 C 341.398,256.053 343.732,257.719 347.5,257.5C 347.5,258.5 347.5,259.5 347.5,260.5C 343.519,259.979 339.519,259.646 335.5,259.5C 335.565,255.893 337.231,253.56 340.5,252.5 Z"/></g>
<g><path style="opacity:1" fill="#07be8f" d="M 363.5,314.5 C 352.611,312.597 341.611,311.264 330.5,310.5C 330.167,310.5 329.833,310.5 329.5,310.5C 325.382,309.291 321.049,308.624 316.5,308.5C 315.5,308.5 314.5,308.5 313.5,308.5C 311.162,306.96 308.495,306.294 305.5,306.5C 306.118,299.183 306.451,291.849 306.5,284.5C 307.414,281.272 307.747,277.939 307.5,274.5C 308.458,274.047 309.292,273.381 310,272.5C 310.333,272.833 310.667,273.167 311,273.5C 311.483,272.552 311.649,271.552 311.5,270.5C 314.499,267.629 318.165,265.629 322.5,264.5C 324.242,262.437 325.909,260.437 327.5,258.5C 329.621,258.675 331.621,258.341 333.5,257.5C 334.167,258.167 334.833,258.833 335.5,259.5C 339.519,259.646 343.519,259.979 347.5,260.5C 350.625,261.479 353.958,261.813 357.5,261.5C 356.986,259.488 356.82,257.488 357,255.5C 358.827,257.302 359.994,259.468 360.5,262C 368.149,263.076 375.816,263.91 383.5,264.5C 381.01,281.087 379.177,297.754 378,314.5C 373.236,315.392 368.403,315.392 363.5,314.5 Z"/></g>
<g><path style="opacity:1" fill="#32d7aa" d="M 316.5,256.5 C 320.312,257.026 323.979,257.693 327.5,258.5C 325.909,260.437 324.242,262.437 322.5,264.5C 318.165,265.629 314.499,267.629 311.5,270.5C 311.649,271.552 311.483,272.552 311,273.5C 310.667,273.167 310.333,272.833 310,272.5C 309.292,273.381 308.458,274.047 307.5,274.5C 308.167,268.5 308.833,262.5 309.5,256.5C 311.833,256.5 314.167,256.5 316.5,256.5 Z"/></g>
<g><path style="opacity:1" fill="#fec750" d="M 398.5,264.5 C 407.865,263.849 409.865,267.349 404.5,275C 399.842,276.187 397.175,274.353 396.5,269.5C 396.902,267.7 397.569,266.033 398.5,264.5 Z"/></g>
<g><path style="opacity:1" fill="#235b99" d="M 202.5,215.5 C 204.421,216.363 206.421,217.029 208.5,217.5C 208.662,219.527 208.495,221.527 208,223.5C 207.691,222.234 207.191,221.067 206.5,220C 204.171,219.394 203.838,220.06 205.5,222C 201.582,225.886 201.582,229.72 205.5,233.5C 205.167,234.167 204.833,234.833 204.5,235.5C 205.244,238.443 205.744,241.443 206,244.5C 206.754,240.649 207.588,236.816 208.5,233C 207.657,231.065 207.657,229.231 208.5,227.5C 209.176,228.602 209.842,229.602 210.5,230.5C 210.5,231.5 210.5,232.5 210.5,233.5C 210.939,239.394 211.939,245.06 213.5,250.5C 216.219,270.718 217.219,291.052 216.5,311.5C 216.824,318.354 216.491,325.021 215.5,331.5C 215.665,328.15 215.498,324.817 215,321.5C 213.369,319.941 212.536,317.941 212.5,315.5C 212.614,311.602 213.614,307.935 215.5,304.5C 214.675,303.614 213.675,303.281 212.5,303.5C 212.5,301.833 212.5,300.167 212.5,298.5C 216.5,297.833 216.5,297.167 212.5,296.5C 212.204,293.057 211.871,289.557 211.5,286C 213.158,285.275 213.658,284.108 213,282.5C 212.107,283.711 211.274,283.711 210.5,282.5C 211.167,281.833 211.833,281.167 212.5,280.5C 211.863,275.598 210.196,271.098 207.5,267C 208.167,264.667 208.833,262.333 209.5,260C 209.095,259.055 208.428,258.388 207.5,258C 210.118,256.026 209.952,254.193 207,252.5C 206.809,254.708 206.309,256.708 205.5,258.5C 205.949,256.023 205.283,254.023 203.5,252.5C 201.469,254.249 201.135,256.249 202.5,258.5C 200.257,260.82 198.59,262.987 197.5,265C 198.609,266.813 197.942,267.646 195.5,267.5C 196.067,265.97 196.733,264.47 197.5,263C 197.333,260.5 197.167,258 197,255.5C 197.718,256.451 198.551,256.617 199.5,256C 198.483,254.951 198.316,253.784 199,252.5C 201.587,250.677 203.087,248.177 203.5,245C 202.692,244.692 202.025,244.192 201.5,243.5C 204.245,236.868 203.579,230.535 199.5,224.5C 199.876,222.617 200.876,221.117 202.5,220C 201.587,218.586 201.587,217.086 202.5,215.5 Z"/></g>
<g><path style="opacity:1" fill="#153e77" d="M 215.5,331.5 C 215.332,338.51 214.999,345.51 214.5,352.5C 209.167,352.5 203.833,352.5 198.5,352.5C 195.552,352.777 192.719,352.444 190,351.5C 186.934,344.136 185.434,336.469 185.5,328.5C 190.528,312.86 196.361,297.527 203,282.5C 204.82,274.606 205.653,266.606 205.5,258.5C 206.309,256.708 206.809,254.708 207,252.5C 209.952,254.193 210.118,256.026 207.5,258C 208.428,258.388 209.095,259.055 209.5,260C 208.833,262.333 208.167,264.667 207.5,267C 210.196,271.098 211.863,275.598 212.5,280.5C 211.833,281.167 211.167,281.833 210.5,282.5C 211.274,283.711 212.107,283.711 213,282.5C 213.658,284.108 213.158,285.275 211.5,286C 211.871,289.557 212.204,293.057 212.5,296.5C 216.5,297.167 216.5,297.833 212.5,298.5C 212.5,300.167 212.5,301.833 212.5,303.5C 213.675,303.281 214.675,303.614 215.5,304.5C 213.614,307.935 212.614,311.602 212.5,315.5C 212.536,317.941 213.369,319.941 215,321.5C 215.498,324.817 215.665,328.15 215.5,331.5 Z"/></g>
<g><path style="opacity:1" fill="#2e6dff" d="M 153.5,292.5 C 158.22,292.206 159.886,294.206 158.5,298.5C 152.74,300.212 151.074,298.212 153.5,292.5 Z"/></g>
<g><path style="opacity:1" fill="#5f7dab" d="M 165.5,290.5 C 164.225,296.913 163.225,303.246 162.5,309.5C 162.334,305.154 162.501,300.821 163,296.5C 163.566,294.277 164.4,292.277 165.5,290.5 Z"/></g>
<g><path style="opacity:1" fill="#6ae2c0" d="M 306.5,284.5 C 306.451,291.849 306.118,299.183 305.5,306.5C 308.495,306.294 311.162,306.96 313.5,308.5C 310.482,308.296 307.482,307.963 304.5,307.5C 304.276,299.611 304.942,291.944 306.5,284.5 Z"/></g>
<g><path style="opacity:1" fill="#12607b" d="M 316.5,308.5 C 321.049,308.624 325.382,309.291 329.5,310.5C 324.878,310.844 320.545,310.177 316.5,308.5 Z"/></g>
<g><path style="opacity:1" fill="#173d76" d="M 313.5,308.5 C 314.5,308.5 315.5,308.5 316.5,308.5C 320.545,310.177 324.878,310.844 329.5,310.5C 329.833,310.5 330.167,310.5 330.5,310.5C 333.093,317.519 336.093,324.352 339.5,331C 337.771,332.789 337.104,334.956 337.5,337.5C 336.099,342.398 333.766,346.731 330.5,350.5C 324.734,351.804 319.067,351.804 313.5,350.5C 313.5,336.5 313.5,322.5 313.5,308.5 Z"/></g>
<g><path style="opacity:1" fill="#1a4788" d="M 330.5,310.5 C 341.611,311.264 352.611,312.597 363.5,314.5C 363.328,315.492 363.662,316.158 364.5,316.5C 365.361,328.144 365.695,339.81 365.5,351.5C 359.208,352.053 353.208,351.386 347.5,349.5C 344.87,344.339 342.536,339.006 340.5,333.5C 339.141,334.624 338.141,335.958 337.5,337.5C 337.104,334.956 337.771,332.789 339.5,331C 336.093,324.352 333.093,317.519 330.5,310.5 Z"/></g>
<g><path style="opacity:1" fill="#5c79a9" d="M 161.5,313.5 C 160.449,316.961 158.449,319.627 155.5,321.5C 157.025,318.437 159.025,315.77 161.5,313.5 Z"/></g>
<g><path style="opacity:1" fill="#276eb2" d="M 205.5,258.5 C 205.653,266.606 204.82,274.606 203,282.5C 196.361,297.527 190.528,312.86 185.5,328.5C 184.542,328.953 183.708,329.619 183,330.5C 179.546,337.738 176.379,345.072 173.5,352.5C 168.167,352.5 162.833,352.5 157.5,352.5C 157.5,352.167 157.5,351.833 157.5,351.5C 161.5,351.5 165.5,351.5 169.5,351.5C 170.8,348.536 172.133,345.536 173.5,342.5C 174.467,336.699 175.801,331.032 177.5,325.5C 180.011,325.838 182.345,325.838 184.5,325.5C 183.289,324.28 183.289,323.113 184.5,322C 183.049,322.263 181.716,322.096 180.5,321.5C 181.711,320.28 181.711,319.113 180.5,318C 182.892,314.716 184.892,311.216 186.5,307.5C 184.883,305.368 184.383,303.035 185,300.5C 185.333,301.5 185.667,302.5 186,303.5C 187,302.167 188,300.833 189,299.5C 190.066,291.265 193.233,284.098 198.5,278C 196.575,275.132 196.575,272.465 198.5,270C 196.881,269.764 195.881,268.931 195.5,267.5C 197.942,267.646 198.609,266.813 197.5,265C 198.59,262.987 200.257,260.82 202.5,258.5C 201.135,256.249 201.469,254.249 203.5,252.5C 205.283,254.023 205.949,256.023 205.5,258.5 Z"/></g>
<g><path style="opacity:1" fill="#ffb5dd" d="M 55.5,323.5 C 63.8277,324.121 65.4944,327.621 60.5,334C 54.7141,334.881 52.2141,332.381 53,326.5C 54.045,325.627 54.8783,324.627 55.5,323.5 Z"/></g>
<g><path style="opacity:1" fill="#a9b9d2" d="M 151.5,328.5 C 151.073,331.01 150.407,333.343 149.5,335.5C 149.338,333.473 149.505,331.473 150,329.5C 150.383,328.944 150.883,328.611 151.5,328.5 Z"/></g>
<g><path style="opacity:1" fill="#f0f4fa" d="M 185.5,328.5 C 185.434,336.469 186.934,344.136 190,351.5C 192.719,352.444 195.552,352.777 198.5,352.5C 197.09,356.227 195.756,360.061 194.5,364C 194.164,365.03 193.497,365.53 192.5,365.5C 185.261,362.389 178.928,358.056 173.5,352.5C 176.379,345.072 179.546,337.738 183,330.5C 183.708,329.619 184.542,328.953 185.5,328.5 Z"/></g>
<g><path style="opacity:1" fill="#f0f3f8" d="M 347.5,349.5 C 347.649,350.552 347.483,351.552 347,352.5C 343.551,356.123 339.717,359.123 335.5,361.5C 334.503,361.53 333.836,361.03 333.5,360C 332.767,357.28 331.767,354.78 330.5,352.5C 330.5,351.833 330.5,351.167 330.5,350.5C 333.766,346.731 336.099,342.398 337.5,337.5C 338.141,335.958 339.141,334.624 340.5,333.5C 342.536,339.006 344.87,344.339 347.5,349.5 Z"/></g>
<g><path style="opacity:1" fill="#5373a6" d="M 364.5,316.5 C 365.268,317.263 365.768,318.263 366,319.5C 366.5,330.495 366.667,341.495 366.5,352.5C 365.833,352.5 365.5,352.167 365.5,351.5C 365.695,339.81 365.361,328.144 364.5,316.5 Z"/></g>
<g><path style="opacity:1" fill="#9ec1fc" d="M 439.5,338.5 C 434.652,338.672 429.985,339.672 425.5,341.5C 429.691,337.985 434.358,336.985 439.5,338.5 Z"/></g>
<g><path style="opacity:1" fill="#fd733b" d="M 407.5,363.5 C 407.928,366.785 408.928,369.785 410.5,372.5C 411.65,375.427 412.65,378.427 413.5,381.5C 411.599,382.231 409.599,382.231 407.5,381.5C 402.069,379.388 396.403,377.721 390.5,376.5C 384.903,374.635 379.237,372.968 373.5,371.5C 373.167,371.5 372.833,371.5 372.5,371.5C 370.412,370.061 368.079,369.394 365.5,369.5C 366.382,366.615 367.716,363.948 369.5,361.5C 378.168,350.995 386.668,340.328 395,329.5C 397.589,333.123 399.589,337.123 401,341.5C 402.87,348.94 405.036,356.273 407.5,363.5 Z"/></g>
<g><path style="opacity:1" fill="#fef8f7" d="M 399.5,347.5 C 399.41,350.152 400.076,352.485 401.5,354.5C 402.869,357.298 403.869,360.298 404.5,363.5C 405.009,368.16 406.342,372.493 408.5,376.5C 403.687,377.472 399.02,376.805 394.5,374.5C 391.916,372.528 388.916,371.528 385.5,371.5C 383.708,371.634 382.042,371.301 380.5,370.5C 377.041,368.838 373.707,367.171 370.5,365.5C 378.507,355.161 386.507,344.828 394.5,334.5C 396.924,338.518 398.591,342.852 399.5,347.5 Z"/></g>
<g><path style="opacity:1" fill="#fafbfe" d="M 440.5,341.5 C 448.094,343.429 453.094,348.096 455.5,355.5C 456.202,372.794 447.869,380.46 430.5,378.5C 429.319,376.933 427.653,376.099 425.5,376C 418.861,369.544 416.694,361.71 419,352.5C 421.422,347.944 424.922,344.611 429.5,342.5C 433.154,342.058 436.821,341.724 440.5,341.5 Z"/></g>
<g><path style="opacity:1" fill="#90a6c7" d="M 149.5,335.5 C 149.5,340.833 149.5,346.167 149.5,351.5C 152.167,351.5 154.833,351.5 157.5,351.5C 157.5,351.833 157.5,352.167 157.5,352.5C 157.672,353.492 157.338,354.158 156.5,354.5C 154.365,352.631 151.698,351.964 148.5,352.5C 148.178,346.642 148.511,340.975 149.5,335.5 Z"/></g>
<g><path style="opacity:1" fill="#ccdffe" d="M 98.5,340.5 C 99.4915,345.05 100.491,349.717 101.5,354.5C 99.0439,350.262 98.0439,345.596 98.5,340.5 Z"/></g>
<g><path style="opacity:1" fill="#639dfc" d="M 101.5,354.5 C 100.491,349.717 99.4915,345.05 98.5,340.5C 98.5,339.167 98.5,337.833 98.5,336.5C 111.264,334.133 123.931,331.633 136.5,329C 140.248,341.572 142.915,354.406 144.5,367.5C 131.931,370.654 119.264,373.321 106.5,375.5C 105.293,368.342 103.627,361.342 101.5,354.5 Z"/></g>
<g><path style="opacity:1" fill="#fafbfe" d="M 132.5,331.5 C 133.5,331.5 134.5,331.5 135.5,331.5C 138.04,343.123 140.374,354.789 142.5,366.5C 130.986,368.041 119.653,369.874 108.5,372C 105.948,360.835 103.281,349.669 100.5,338.5C 111.426,336.812 122.092,334.478 132.5,331.5 Z"/></g>
<g><path style="opacity:1" fill="#5895fb" d="M 439.5,338.5 C 454.302,341.797 460.302,350.797 457.5,365.5C 456.833,362.167 456.167,358.833 455.5,355.5C 453.094,348.096 448.094,343.429 440.5,341.5C 439.207,340.842 437.707,340.508 436,340.5C 433.456,340.336 431.29,341.003 429.5,342.5C 424.922,344.611 421.422,347.944 419,352.5C 416.694,361.71 418.861,369.544 425.5,376C 427.653,376.099 429.319,376.933 430.5,378.5C 434.647,379.325 438.981,379.825 443.5,380C 442.584,380.278 441.918,380.778 441.5,381.5C 438.36,382.641 435.027,382.808 431.5,382C 418.945,376.736 413.779,367.236 416,353.5C 417.892,348.447 421.058,344.447 425.5,341.5C 429.985,339.672 434.652,338.672 439.5,338.5 Z"/></g>
<g><path style="opacity:1" fill="#a6c7fd" d="M 440.5,341.5 C 436.821,341.724 433.154,342.058 429.5,342.5C 431.29,341.003 433.456,340.336 436,340.5C 437.707,340.508 439.207,340.842 440.5,341.5 Z"/></g>
<g><path style="opacity:1" fill="#ffbca0" d="M 399.5,347.5 C 400.924,349.515 401.59,351.848 401.5,354.5C 400.076,352.485 399.41,350.152 399.5,347.5 Z"/></g>
<g><path style="opacity:1" fill="#448cf9" d="M 347.5,349.5 C 353.208,351.386 359.208,352.053 365.5,351.5C 365.5,352.167 365.833,352.5 366.5,352.5C 367.696,355.421 368.696,358.421 369.5,361.5C 367.716,363.948 366.382,366.615 365.5,369.5C 368.079,369.394 370.412,370.061 372.5,371.5C 370.721,373.344 368.388,374.01 365.5,373.5C 355.013,372.506 344.346,372.172 333.5,372.5C 334.609,371.71 335.942,371.21 337.5,371C 331.833,370.667 326.167,370.333 320.5,370C 323.873,366.452 327.873,363.952 332.5,362.5C 333.791,362.737 334.791,362.404 335.5,361.5C 339.717,359.123 343.551,356.123 347,352.5C 347.483,351.552 347.649,350.552 347.5,349.5 Z"/></g>
<g><path style="opacity:1" fill="#438dfa" d="M 157.5,352.5 C 162.833,352.5 168.167,352.5 173.5,352.5C 178.928,358.056 185.261,362.389 192.5,365.5C 195.751,367.144 198.751,369.31 201.5,372C 210.676,372.17 219.676,372.67 228.5,373.5C 217.5,373.5 206.5,373.5 195.5,373.5C 180.676,372.504 165.676,372.171 150.5,372.5C 150.5,371.5 150.5,370.5 150.5,369.5C 152.078,366.653 153.412,363.653 154.5,360.5C 156.074,358.898 156.741,356.898 156.5,354.5C 157.338,354.158 157.672,353.492 157.5,352.5 Z"/></g>
<g><path style="opacity:1" fill="#3582ec" d="M 313.5,350.5 C 319.067,351.804 324.734,351.804 330.5,350.5C 330.5,351.167 330.5,351.833 330.5,352.5C 330.959,355.877 331.626,359.211 332.5,362.5C 327.873,363.952 323.873,366.452 320.5,370C 326.167,370.333 331.833,370.667 337.5,371C 335.942,371.21 334.609,371.71 333.5,372.5C 316.466,373.152 299.8,372.485 283.5,370.5C 287.688,365.566 293.021,362.4 299.5,361C 304.327,357.668 308.993,354.168 313.5,350.5 Z"/></g>
<g><path style="opacity:1" fill="#82afee" d="M 330.5,352.5 C 331.767,354.78 332.767,357.28 333.5,360C 333.836,361.03 334.503,361.53 335.5,361.5C 334.791,362.404 333.791,362.737 332.5,362.5C 331.626,359.211 330.959,355.877 330.5,352.5 Z"/></g>
<g><path style="opacity:1" fill="#2879e1" d="M 198.5,352.5 C 203.833,352.5 209.167,352.5 214.5,352.5C 216.902,355.215 219.568,357.715 222.5,360C 229.161,363.329 235.494,367.162 241.5,371.5C 237.627,373.43 233.294,374.097 228.5,373.5C 219.676,372.67 210.676,372.17 201.5,372C 198.751,369.31 195.751,367.144 192.5,365.5C 193.497,365.53 194.164,365.03 194.5,364C 195.756,360.061 197.09,356.227 198.5,352.5 Z"/></g>
<g><path style="opacity:1" fill="#8db7fd" d="M 156.5,354.5 C 156.741,356.898 156.074,358.898 154.5,360.5C 154.259,358.102 154.926,356.102 156.5,354.5 Z"/></g>
<g><path style="opacity:1" fill="#ffc2a9" d="M 407.5,363.5 C 409.554,366.008 410.554,369.008 410.5,372.5C 408.928,369.785 407.928,366.785 407.5,363.5 Z"/></g>
<g><path style="opacity:1" fill="#f3b9a8" d="M 370.5,365.5 C 373.707,367.171 377.041,368.838 380.5,370.5C 376.899,369.537 373.233,368.87 369.5,368.5C 369.263,367.209 369.596,366.209 370.5,365.5 Z"/></g>
<g><path style="opacity:1" fill="#ffcbb7" d="M 404.5,363.5 C 406.61,367.502 407.943,371.835 408.5,376.5C 406.342,372.493 405.009,368.16 404.5,363.5 Z"/></g>
<g><path style="opacity:1" fill="#ffc6af" d="M 385.5,371.5 C 388.916,371.528 391.916,372.528 394.5,374.5C 391.145,374.31 388.145,373.31 385.5,371.5 Z"/></g>
<g><path style="opacity:1" fill="#99c0fd" d="M 150.5,369.5 C 150.5,370.5 150.5,371.5 150.5,372.5C 165.676,372.171 180.676,372.504 195.5,373.5C 189.167,373.5 182.833,373.5 176.5,373.5C 167.5,373.5 158.5,373.5 149.5,373.5C 149.232,371.901 149.566,370.568 150.5,369.5 Z"/></g>
<g><path style="opacity:1" fill="#a5c7fb" d="M 283.5,370.5 C 299.8,372.485 316.466,373.152 333.5,372.5C 344.346,372.172 355.013,372.506 365.5,373.5C 356.167,373.5 346.833,373.5 337.5,373.5C 319.167,373.5 300.833,373.5 282.5,373.5C 282.263,372.209 282.596,371.209 283.5,370.5 Z"/></g>
<g><path style="opacity:1" fill="#c5daf9" d="M 241.5,371.5 C 242.404,372.209 242.737,373.209 242.5,374.5C 220.327,374.831 198.327,374.497 176.5,373.5C 182.833,373.5 189.167,373.5 195.5,373.5C 206.5,373.5 217.5,373.5 228.5,373.5C 233.294,374.097 237.627,373.43 241.5,371.5 Z"/></g>
<g><path style="opacity:1" fill="#cee1fd" d="M 372.5,371.5 C 372.833,371.5 373.167,371.5 373.5,371.5C 373.5,372.5 373.5,373.5 373.5,374.5C 361.322,374.828 349.322,374.495 337.5,373.5C 346.833,373.5 356.167,373.5 365.5,373.5C 368.388,374.01 370.721,373.344 372.5,371.5 Z"/></g>
<g><path style="opacity:1" fill="#8eb8fb" d="M 455.5,355.5 C 456.167,358.833 456.833,362.167 457.5,365.5C 455.117,373.883 449.784,379.216 441.5,381.5C 441.918,380.778 442.584,380.278 443.5,380C 438.981,379.825 434.647,379.325 430.5,378.5C 447.869,380.46 456.202,372.794 455.5,355.5 Z"/></g>
<g><path style="opacity:1" fill="#ffcbb6" d="M 390.5,376.5 C 396.403,377.721 402.069,379.388 407.5,381.5C 402.112,380.653 396.779,379.487 391.5,378C 390.944,377.617 390.611,377.117 390.5,376.5 Z"/></g>
</svg>
